solid padtap_lid
  facet normal 0.0000e+00 0.0000e+00 -3.2000e+02
    outer loop
      vertex 0.000 0.000 0.000
      vertex 0.000 40.000 0.000
      vertex 8.000 40.000 0.000
    endloop
  endfacet
  facet normal 0.0000e+00 0.0000e+00 -3.2000e+02
    outer loop
      vertex 0.000 0.000 0.000
      vertex 8.000 40.000 0.000
      vertex 8.000 0.000 0.000
    endloop
  endfacet
  facet normal 0.0000e+00 0.0000e+00 3.2000e+02
    outer loop
      vertex 0.000 0.000 0.400
      vertex 8.000 0.000 0.400
      vertex 8.000 40.000 0.400
    endloop
  endfacet
  facet normal 0.0000e+00 0.0000e+00 3.2000e+02
    outer loop
      vertex 0.000 0.000 0.400
      vertex 8.000 40.000 0.400
      vertex 0.000 40.000 0.400
    endloop
  endfacet
  facet normal 0.0000e+00 -3.2000e+00 0.0000e+00
    outer loop
      vertex 0.000 0.000 0.000
      vertex 8.000 0.000 0.000
      vertex 8.000 0.000 0.400
    endloop
  endfacet
  facet normal 0.0000e+00 -3.2000e+00 0.0000e+00
    outer loop
      vertex 0.000 0.000 0.000
      vertex 8.000 0.000 0.400
      vertex 0.000 0.000 0.400
    endloop
  endfacet
  facet normal 1.6000e+01 0.0000e+00 0.0000e+00
    outer loop
      vertex 8.000 0.000 0.000
      vertex 8.000 40.000 0.000
      vertex 8.000 40.000 0.400
    endloop
  endfacet
  facet normal 1.6000e+01 0.0000e+00 0.0000e+00
    outer loop
      vertex 8.000 0.000 0.000
      vertex 8.000 40.000 0.400
      vertex 8.000 0.000 0.400
    endloop
  endfacet
  facet normal 0.0000e+00 3.2000e+00 0.0000e+00
    outer loop
      vertex 8.000 40.000 0.000
      vertex 0.000 40.000 0.000
      vertex 0.000 40.000 0.400
    endloop
  endfacet
  facet normal 0.0000e+00 3.2000e+00 -0.0000e+00
    outer loop
      vertex 8.000 40.000 0.000
      vertex 0.000 40.000 0.400
      vertex 8.000 40.000 0.400
    endloop
  endfacet
  facet normal -1.6000e+01 0.0000e+00 0.0000e+00
    outer loop
      vertex 0.000 40.000 0.000
      vertex 0.000 0.000 0.000
      vertex 0.000 0.000 0.400
    endloop
  endfacet
  facet normal -1.6000e+01 0.0000e+00 0.0000e+00
    outer loop
      vertex 0.000 40.000 0.000
      vertex 0.000 0.000 0.400
      vertex 0.000 40.000 0.400
    endloop
  endfacet
  facet normal 0.0000e+00 0.0000e+00 -6.0000e+01
    outer loop
      vertex 8.000 0.000 0.000
      vertex 8.000 6.000 0.000
      vertex 18.000 6.000 0.000
    endloop
  endfacet
  facet normal 0.0000e+00 0.0000e+00 -6.0000e+01
    outer loop
      vertex 8.000 0.000 0.000
      vertex 18.000 6.000 0.000
      vertex 18.000 0.000 0.000
    endloop
  endfacet
  facet normal 0.0000e+00 0.0000e+00 6.0000e+01
    outer loop
      vertex 8.000 0.000 0.400
      vertex 18.000 0.000 0.400
      vertex 18.000 6.000 0.400
    endloop
  endfacet
  facet normal 0.0000e+00 0.0000e+00 6.0000e+01
    outer loop
      vertex 8.000 0.000 0.400
      vertex 18.000 6.000 0.400
      vertex 8.000 6.000 0.400
    endloop
  endfacet
  facet normal 0.0000e+00 -4.0000e+00 0.0000e+00
    outer loop
      vertex 8.000 0.000 0.000
      vertex 18.000 0.000 0.000
      vertex 18.000 0.000 0.400
    endloop
  endfacet
  facet normal 0.0000e+00 -4.0000e+00 0.0000e+00
    outer loop
      vertex 8.000 0.000 0.000
      vertex 18.000 0.000 0.400
      vertex 8.000 0.000 0.400
    endloop
  endfacet
  facet normal 2.4000e+00 0.0000e+00 0.0000e+00
    outer loop
      vertex 18.000 0.000 0.000
      vertex 18.000 6.000 0.000
      vertex 18.000 6.000 0.400
    endloop
  endfacet
  facet normal 2.4000e+00 0.0000e+00 0.0000e+00
    outer loop
      vertex 18.000 0.000 0.000
      vertex 18.000 6.000 0.400
      vertex 18.000 0.000 0.400
    endloop
  endfacet
  facet normal 0.0000e+00 4.0000e+00 0.0000e+00
    outer loop
      vertex 18.000 6.000 0.000
      vertex 8.000 6.000 0.000
      vertex 8.000 6.000 0.400
    endloop
  endfacet
  facet normal 0.0000e+00 4.0000e+00 -0.0000e+00
    outer loop
      vertex 18.000 6.000 0.000
      vertex 8.000 6.000 0.400
      vertex 18.000 6.000 0.400
    endloop
  endfacet
  facet normal -2.4000e+00 0.0000e+00 0.0000e+00
    outer loop
      vertex 8.000 6.000 0.000
      vertex 8.000 0.000 0.000
      vertex 8.000 0.000 0.400
    endloop
  endfacet
  facet normal -2.4000e+00 0.0000e+00 0.0000e+00
    outer loop
      vertex 8.000 6.000 0.000
      vertex 8.000 0.000 0.400
      vertex 8.000 6.000 0.400
    endloop
  endfacet
  facet normal 0.0000e+00 0.0000e+00 -8.0000e+01
    outer loop
      vertex 8.000 16.000 0.000
      vertex 8.000 24.000 0.000
      vertex 18.000 24.000 0.000
    endloop
  endfacet
  facet normal 0.0000e+00 0.0000e+00 -8.0000e+01
    outer loop
      vertex 8.000 16.000 0.000
      vertex 18.000 24.000 0.000
      vertex 18.000 16.000 0.000
    endloop
  endfacet
  facet normal 0.0000e+00 0.0000e+00 8.0000e+01
    outer loop
      vertex 8.000 16.000 0.400
      vertex 18.000 16.000 0.400
      vertex 18.000 24.000 0.400
    endloop
  endfacet
  facet normal 0.0000e+00 0.0000e+00 8.0000e+01
    outer loop
      vertex 8.000 16.000 0.400
      vertex 18.000 24.000 0.400
      vertex 8.000 24.000 0.400
    endloop
  endfacet
  facet normal 0.0000e+00 -4.0000e+00 0.0000e+00
    outer loop
      vertex 8.000 16.000 0.000
      vertex 18.000 16.000 0.000
      vertex 18.000 16.000 0.400
    endloop
  endfacet
  facet normal 0.0000e+00 -4.0000e+00 0.0000e+00
    outer loop
      vertex 8.000 16.000 0.000
      vertex 18.000 16.000 0.400
      vertex 8.000 16.000 0.400
    endloop
  endfacet
  facet normal 3.2000e+00 0.0000e+00 0.0000e+00
    outer loop
      vertex 18.000 16.000 0.000
      vertex 18.000 24.000 0.000
      vertex 18.000 24.000 0.400
    endloop
  endfacet
  facet normal 3.2000e+00 0.0000e+00 0.0000e+00
    outer loop
      vertex 18.000 16.000 0.000
      vertex 18.000 24.000 0.400
      vertex 18.000 16.000 0.400
    endloop
  endfacet
  facet normal 0.0000e+00 4.0000e+00 0.0000e+00
    outer loop
      vertex 18.000 24.000 0.000
      vertex 8.000 24.000 0.000
      vertex 8.000 24.000 0.400
    endloop
  endfacet
  facet normal 0.0000e+00 4.0000e+00 -0.0000e+00
    outer loop
      vertex 18.000 24.000 0.000
      vertex 8.000 24.000 0.400
      vertex 18.000 24.000 0.400
    endloop
  endfacet
  facet normal -3.2000e+00 0.0000e+00 0.0000e+00
    outer loop
      vertex 8.000 24.000 0.000
      vertex 8.000 16.000 0.000
      vertex 8.000 16.000 0.400
    endloop
  endfacet
  facet normal -3.2000e+00 0.0000e+00 0.0000e+00
    outer loop
      vertex 8.000 24.000 0.000
      vertex 8.000 16.000 0.400
      vertex 8.000 24.000 0.400
    endloop
  endfacet
  facet normal 0.0000e+00 0.0000e+00 -6.0000e+01
    outer loop
      vertex 8.000 34.000 0.000
      vertex 8.000 40.000 0.000
      vertex 18.000 40.000 0.000
    endloop
  endfacet
  facet normal 0.0000e+00 0.0000e+00 -6.0000e+01
    outer loop
      vertex 8.000 34.000 0.000
      vertex 18.000 40.000 0.000
      vertex 18.000 34.000 0.000
    endloop
  endfacet
  facet normal 0.0000e+00 0.0000e+00 6.0000e+01
    outer loop
      vertex 8.000 34.000 0.400
      vertex 18.000 34.000 0.400
      vertex 18.000 40.000 0.400
    endloop
  endfacet
  facet normal 0.0000e+00 0.0000e+00 6.0000e+01
    outer loop
      vertex 8.000 34.000 0.400
      vertex 18.000 40.000 0.400
      vertex 8.000 40.000 0.400
    endloop
  endfacet
  facet normal 0.0000e+00 -4.0000e+00 0.0000e+00
    outer loop
      vertex 8.000 34.000 0.000
      vertex 18.000 34.000 0.000
      vertex 18.000 34.000 0.400
    endloop
  endfacet
  facet normal 0.0000e+00 -4.0000e+00 0.0000e+00
    outer loop
      vertex 8.000 34.000 0.000
      vertex 18.000 34.000 0.400
      vertex 8.000 34.000 0.400
    endloop
  endfacet
  facet normal 2.4000e+00 0.0000e+00 0.0000e+00
    outer loop
      vertex 18.000 34.000 0.000
      vertex 18.000 40.000 0.000
      vertex 18.000 40.000 0.400
    endloop
  endfacet
  facet normal 2.4000e+00 0.0000e+00 0.0000e+00
    outer loop
      vertex 18.000 34.000 0.000
      vertex 18.000 40.000 0.400
      vertex 18.000 34.000 0.400
    endloop
  endfacet
  facet normal 0.0000e+00 4.0000e+00 0.0000e+00
    outer loop
      vertex 18.000 40.000 0.000
      vertex 8.000 40.000 0.000
      vertex 8.000 40.000 0.400
    endloop
  endfacet
  facet normal 0.0000e+00 4.0000e+00 -0.0000e+00
    outer loop
      vertex 18.000 40.000 0.000
      vertex 8.000 40.000 0.400
      vertex 18.000 40.000 0.400
    endloop
  endfacet
  facet normal -2.4000e+00 0.0000e+00 0.0000e+00
    outer loop
      vertex 8.000 40.000 0.000
      vertex 8.000 34.000 0.000
      vertex 8.000 34.000 0.400
    endloop
  endfacet
  facet normal -2.4000e+00 0.0000e+00 0.0000e+00
    outer loop
      vertex 8.000 40.000 0.000
      vertex 8.000 34.000 0.400
      vertex 8.000 40.000 0.400
    endloop
  endfacet
  facet normal 0.0000e+00 0.0000e+00 -1.1200e+03
    outer loop
      vertex 18.000 0.000 0.000
      vertex 18.000 40.000 0.000
      vertex 46.000 40.000 0.000
    endloop
  endfacet
  facet normal 0.0000e+00 0.0000e+00 -1.1200e+03
    outer loop
      vertex 18.000 0.000 0.000
      vertex 46.000 40.000 0.000
      vertex 46.000 0.000 0.000
    endloop
  endfacet
  facet normal 0.0000e+00 0.0000e+00 1.1200e+03
    outer loop
      vertex 18.000 0.000 0.400
      vertex 46.000 0.000 0.400
      vertex 46.000 40.000 0.400
    endloop
  endfacet
  facet normal 0.0000e+00 0.0000e+00 1.1200e+03
    outer loop
      vertex 18.000 0.000 0.400
      vertex 46.000 40.000 0.400
      vertex 18.000 40.000 0.400
    endloop
  endfacet
  facet normal 0.0000e+00 -1.1200e+01 0.0000e+00
    outer loop
      vertex 18.000 0.000 0.000
      vertex 46.000 0.000 0.000
      vertex 46.000 0.000 0.400
    endloop
  endfacet
  facet normal 0.0000e+00 -1.1200e+01 0.0000e+00
    outer loop
      vertex 18.000 0.000 0.000
      vertex 46.000 0.000 0.400
      vertex 18.000 0.000 0.400
    endloop
  endfacet
  facet normal 1.6000e+01 0.0000e+00 0.0000e+00
    outer loop
      vertex 46.000 0.000 0.000
      vertex 46.000 40.000 0.000
      vertex 46.000 40.000 0.400
    endloop
  endfacet
  facet normal 1.6000e+01 0.0000e+00 0.0000e+00
    outer loop
      vertex 46.000 0.000 0.000
      vertex 46.000 40.000 0.400
      vertex 46.000 0.000 0.400
    endloop
  endfacet
  facet normal 0.0000e+00 1.1200e+01 0.0000e+00
    outer loop
      vertex 46.000 40.000 0.000
      vertex 18.000 40.000 0.000
      vertex 18.000 40.000 0.400
    endloop
  endfacet
  facet normal 0.0000e+00 1.1200e+01 -0.0000e+00
    outer loop
      vertex 46.000 40.000 0.000
      vertex 18.000 40.000 0.400
      vertex 46.000 40.000 0.400
    endloop
  endfacet
  facet normal -1.6000e+01 0.0000e+00 0.0000e+00
    outer loop
      vertex 18.000 40.000 0.000
      vertex 18.000 0.000 0.000
      vertex 18.000 0.000 0.400
    endloop
  endfacet
  facet normal -1.6000e+01 0.0000e+00 0.0000e+00
    outer loop
      vertex 18.000 40.000 0.000
      vertex 18.000 0.000 0.400
      vertex 18.000 40.000 0.400
    endloop
  endfacet
  facet normal 0.0000e+00 0.0000e+00 -6.0000e+01
    outer loop
      vertex 46.000 0.000 0.000
      vertex 46.000 6.000 0.000
      vertex 56.000 6.000 0.000
    endloop
  endfacet
  facet normal 0.0000e+00 0.0000e+00 -6.0000e+01
    outer loop
      vertex 46.000 0.000 0.000
      vertex 56.000 6.000 0.000
      vertex 56.000 0.000 0.000
    endloop
  endfacet
  facet normal 0.0000e+00 0.0000e+00 6.0000e+01
    outer loop
      vertex 46.000 0.000 0.400
      vertex 56.000 0.000 0.400
      vertex 56.000 6.000 0.400
    endloop
  endfacet
  facet normal 0.0000e+00 0.0000e+00 6.0000e+01
    outer loop
      vertex 46.000 0.000 0.400
      vertex 56.000 6.000 0.400
      vertex 46.000 6.000 0.400
    endloop
  endfacet
  facet normal 0.0000e+00 -4.0000e+00 0.0000e+00
    outer loop
      vertex 46.000 0.000 0.000
      vertex 56.000 0.000 0.000
      vertex 56.000 0.000 0.400
    endloop
  endfacet
  facet normal 0.0000e+00 -4.0000e+00 0.0000e+00
    outer loop
      vertex 46.000 0.000 0.000
      vertex 56.000 0.000 0.400
      vertex 46.000 0.000 0.400
    endloop
  endfacet
  facet normal 2.4000e+00 0.0000e+00 0.0000e+00
    outer loop
      vertex 56.000 0.000 0.000
      vertex 56.000 6.000 0.000
      vertex 56.000 6.000 0.400
    endloop
  endfacet
  facet normal 2.4000e+00 0.0000e+00 0.0000e+00
    outer loop
      vertex 56.000 0.000 0.000
      vertex 56.000 6.000 0.400
      vertex 56.000 0.000 0.400
    endloop
  endfacet
  facet normal 0.0000e+00 4.0000e+00 0.0000e+00
    outer loop
      vertex 56.000 6.000 0.000
      vertex 46.000 6.000 0.000
      vertex 46.000 6.000 0.400
    endloop
  endfacet
  facet normal 0.0000e+00 4.0000e+00 -0.0000e+00
    outer loop
      vertex 56.000 6.000 0.000
      vertex 46.000 6.000 0.400
      vertex 56.000 6.000 0.400
    endloop
  endfacet
  facet normal -2.4000e+00 0.0000e+00 0.0000e+00
    outer loop
      vertex 46.000 6.000 0.000
      vertex 46.000 0.000 0.000
      vertex 46.000 0.000 0.400
    endloop
  endfacet
  facet normal -2.4000e+00 0.0000e+00 0.0000e+00
    outer loop
      vertex 46.000 6.000 0.000
      vertex 46.000 0.000 0.400
      vertex 46.000 6.000 0.400
    endloop
  endfacet
  facet normal 0.0000e+00 0.0000e+00 -8.0000e+01
    outer loop
      vertex 46.000 16.000 0.000
      vertex 46.000 24.000 0.000
      vertex 56.000 24.000 0.000
    endloop
  endfacet
  facet normal 0.0000e+00 0.0000e+00 -8.0000e+01
    outer loop
      vertex 46.000 16.000 0.000
      vertex 56.000 24.000 0.000
      vertex 56.000 16.000 0.000
    endloop
  endfacet
  facet normal 0.0000e+00 0.0000e+00 8.0000e+01
    outer loop
      vertex 46.000 16.000 0.400
      vertex 56.000 16.000 0.400
      vertex 56.000 24.000 0.400
    endloop
  endfacet
  facet normal 0.0000e+00 0.0000e+00 8.0000e+01
    outer loop
      vertex 46.000 16.000 0.400
      vertex 56.000 24.000 0.400
      vertex 46.000 24.000 0.400
    endloop
  endfacet
  facet normal 0.0000e+00 -4.0000e+00 0.0000e+00
    outer loop
      vertex 46.000 16.000 0.000
      vertex 56.000 16.000 0.000
      vertex 56.000 16.000 0.400
    endloop
  endfacet
  facet normal 0.0000e+00 -4.0000e+00 0.0000e+00
    outer loop
      vertex 46.000 16.000 0.000
      vertex 56.000 16.000 0.400
      vertex 46.000 16.000 0.400
    endloop
  endfacet
  facet normal 3.2000e+00 0.0000e+00 0.0000e+00
    outer loop
      vertex 56.000 16.000 0.000
      vertex 56.000 24.000 0.000
      vertex 56.000 24.000 0.400
    endloop
  endfacet
  facet normal 3.2000e+00 0.0000e+00 0.0000e+00
    outer loop
      vertex 56.000 16.000 0.000
      vertex 56.000 24.000 0.400
      vertex 56.000 16.000 0.400
    endloop
  endfacet
  facet normal 0.0000e+00 4.0000e+00 0.0000e+00
    outer loop
      vertex 56.000 24.000 0.000
      vertex 46.000 24.000 0.000
      vertex 46.000 24.000 0.400
    endloop
  endfacet
  facet normal 0.0000e+00 4.0000e+00 -0.0000e+00
    outer loop
      vertex 56.000 24.000 0.000
      vertex 46.000 24.000 0.400
      vertex 56.000 24.000 0.400
    endloop
  endfacet
  facet normal -3.2000e+00 0.0000e+00 0.0000e+00
    outer loop
      vertex 46.000 24.000 0.000
      vertex 46.000 16.000 0.000
      vertex 46.000 16.000 0.400
    endloop
  endfacet
  facet normal -3.2000e+00 0.0000e+00 0.0000e+00
    outer loop
      vertex 46.000 24.000 0.000
      vertex 46.000 16.000 0.400
      vertex 46.000 24.000 0.400
    endloop
  endfacet
  facet normal 0.0000e+00 0.0000e+00 -6.0000e+01
    outer loop
      vertex 46.000 34.000 0.000
      vertex 46.000 40.000 0.000
      vertex 56.000 40.000 0.000
    endloop
  endfacet
  facet normal 0.0000e+00 0.0000e+00 -6.0000e+01
    outer loop
      vertex 46.000 34.000 0.000
      vertex 56.000 40.000 0.000
      vertex 56.000 34.000 0.000
    endloop
  endfacet
  facet normal 0.0000e+00 0.0000e+00 6.0000e+01
    outer loop
      vertex 46.000 34.000 0.400
      vertex 56.000 34.000 0.400
      vertex 56.000 40.000 0.400
    endloop
  endfacet
  facet normal 0.0000e+00 0.0000e+00 6.0000e+01
    outer loop
      vertex 46.000 34.000 0.400
      vertex 56.000 40.000 0.400
      vertex 46.000 40.000 0.400
    endloop
  endfacet
  facet normal 0.0000e+00 -4.0000e+00 0.0000e+00
    outer loop
      vertex 46.000 34.000 0.000
      vertex 56.000 34.000 0.000
      vertex 56.000 34.000 0.400
    endloop
  endfacet
  facet normal 0.0000e+00 -4.0000e+00 0.0000e+00
    outer loop
      vertex 46.000 34.000 0.000
      vertex 56.000 34.000 0.400
      vertex 46.000 34.000 0.400
    endloop
  endfacet
  facet normal 2.4000e+00 0.0000e+00 0.0000e+00
    outer loop
      vertex 56.000 34.000 0.000
      vertex 56.000 40.000 0.000
      vertex 56.000 40.000 0.400
    endloop
  endfacet
  facet normal 2.4000e+00 0.0000e+00 0.0000e+00
    outer loop
      vertex 56.000 34.000 0.000
      vertex 56.000 40.000 0.400
      vertex 56.000 34.000 0.400
    endloop
  endfacet
  facet normal 0.0000e+00 4.0000e+00 0.0000e+00
    outer loop
      vertex 56.000 40.000 0.000
      vertex 46.000 40.000 0.000
      vertex 46.000 40.000 0.400
    endloop
  endfacet
  facet normal 0.0000e+00 4.0000e+00 -0.0000e+00
    outer loop
      vertex 56.000 40.000 0.000
      vertex 46.000 40.000 0.400
      vertex 56.000 40.000 0.400
    endloop
  endfacet
  facet normal -2.4000e+00 0.0000e+00 0.0000e+00
    outer loop
      vertex 46.000 40.000 0.000
      vertex 46.000 34.000 0.000
      vertex 46.000 34.000 0.400
    endloop
  endfacet
  facet normal -2.4000e+00 0.0000e+00 0.0000e+00
    outer loop
      vertex 46.000 40.000 0.000
      vertex 46.000 34.000 0.400
      vertex 46.000 40.000 0.400
    endloop
  endfacet
  facet normal 0.0000e+00 0.0000e+00 -3.2000e+02
    outer loop
      vertex 56.000 0.000 0.000
      vertex 56.000 40.000 0.000
      vertex 64.000 40.000 0.000
    endloop
  endfacet
  facet normal 0.0000e+00 0.0000e+00 -3.2000e+02
    outer loop
      vertex 56.000 0.000 0.000
      vertex 64.000 40.000 0.000
      vertex 64.000 0.000 0.000
    endloop
  endfacet
  facet normal 0.0000e+00 0.0000e+00 3.2000e+02
    outer loop
      vertex 56.000 0.000 0.400
      vertex 64.000 0.000 0.400
      vertex 64.000 40.000 0.400
    endloop
  endfacet
  facet normal 0.0000e+00 0.0000e+00 3.2000e+02
    outer loop
      vertex 56.000 0.000 0.400
      vertex 64.000 40.000 0.400
      vertex 56.000 40.000 0.400
    endloop
  endfacet
  facet normal 0.0000e+00 -3.2000e+00 0.0000e+00
    outer loop
      vertex 56.000 0.000 0.000
      vertex 64.000 0.000 0.000
      vertex 64.000 0.000 0.400
    endloop
  endfacet
  facet normal 0.0000e+00 -3.2000e+00 0.0000e+00
    outer loop
      vertex 56.000 0.000 0.000
      vertex 64.000 0.000 0.400
      vertex 56.000 0.000 0.400
    endloop
  endfacet
  facet normal 1.6000e+01 0.0000e+00 0.0000e+00
    outer loop
      vertex 64.000 0.000 0.000
      vertex 64.000 40.000 0.000
      vertex 64.000 40.000 0.400
    endloop
  endfacet
  facet normal 1.6000e+01 0.0000e+00 0.0000e+00
    outer loop
      vertex 64.000 0.000 0.000
      vertex 64.000 40.000 0.400
      vertex 64.000 0.000 0.400
    endloop
  endfacet
  facet normal 0.0000e+00 3.2000e+00 0.0000e+00
    outer loop
      vertex 64.000 40.000 0.000
      vertex 56.000 40.000 0.000
      vertex 56.000 40.000 0.400
    endloop
  endfacet
  facet normal 0.0000e+00 3.2000e+00 -0.0000e+00
    outer loop
      vertex 64.000 40.000 0.000
      vertex 56.000 40.000 0.400
      vertex 64.000 40.000 0.400
    endloop
  endfacet
  facet normal -1.6000e+01 0.0000e+00 0.0000e+00
    outer loop
      vertex 56.000 40.000 0.000
      vertex 56.000 0.000 0.000
      vertex 56.000 0.000 0.400
    endloop
  endfacet
  facet normal -1.6000e+01 0.0000e+00 0.0000e+00
    outer loop
      vertex 56.000 40.000 0.000
      vertex 56.000 0.000 0.400
      vertex 56.000 40.000 0.400
    endloop
  endfacet
  facet normal 0.0000e+00 0.0000e+00 -1.4600e+02
    outer loop
      vertex 0.000 0.000 0.400
      vertex 0.000 40.000 0.400
      vertex 3.650 40.000 0.400
    endloop
  endfacet
  facet normal 0.0000e+00 0.0000e+00 -1.4600e+02
    outer loop
      vertex 0.000 0.000 0.400
      vertex 3.650 40.000 0.400
      vertex 3.650 0.000 0.400
    endloop
  endfacet
  facet normal 0.0000e+00 0.0000e+00 1.4600e+02
    outer loop
      vertex 0.000 0.000 1.600
      vertex 3.650 0.000 1.600
      vertex 3.650 40.000 1.600
    endloop
  endfacet
  facet normal 0.0000e+00 0.0000e+00 1.4600e+02
    outer loop
      vertex 0.000 0.000 1.600
      vertex 3.650 40.000 1.600
      vertex 0.000 40.000 1.600
    endloop
  endfacet
  facet normal 0.0000e+00 -4.3800e+00 0.0000e+00
    outer loop
      vertex 0.000 0.000 0.400
      vertex 3.650 0.000 0.400
      vertex 3.650 0.000 1.600
    endloop
  endfacet
  facet normal 0.0000e+00 -4.3800e+00 0.0000e+00
    outer loop
      vertex 0.000 0.000 0.400
      vertex 3.650 0.000 1.600
      vertex 0.000 0.000 1.600
    endloop
  endfacet
  facet normal 4.8000e+01 0.0000e+00 0.0000e+00
    outer loop
      vertex 3.650 0.000 0.400
      vertex 3.650 40.000 0.400
      vertex 3.650 40.000 1.600
    endloop
  endfacet
  facet normal 4.8000e+01 0.0000e+00 0.0000e+00
    outer loop
      vertex 3.650 0.000 0.400
      vertex 3.650 40.000 1.600
      vertex 3.650 0.000 1.600
    endloop
  endfacet
  facet normal 0.0000e+00 4.3800e+00 0.0000e+00
    outer loop
      vertex 3.650 40.000 0.400
      vertex 0.000 40.000 0.400
      vertex 0.000 40.000 1.600
    endloop
  endfacet
  facet normal 0.0000e+00 4.3800e+00 -0.0000e+00
    outer loop
      vertex 3.650 40.000 0.400
      vertex 0.000 40.000 1.600
      vertex 3.650 40.000 1.600
    endloop
  endfacet
  facet normal -4.8000e+01 0.0000e+00 0.0000e+00
    outer loop
      vertex 0.000 40.000 0.400
      vertex 0.000 0.000 0.400
      vertex 0.000 0.000 1.600
    endloop
  endfacet
  facet normal -4.8000e+01 0.0000e+00 0.0000e+00
    outer loop
      vertex 0.000 40.000 0.400
      vertex 0.000 0.000 1.600
      vertex 0.000 40.000 1.600
    endloop
  endfacet
  facet normal 0.0000e+00 0.0000e+00 -1.2555e+01
    outer loop
      vertex 3.650 0.000 0.400
      vertex 3.650 4.650 0.400
      vertex 6.350 4.650 0.400
    endloop
  endfacet
  facet normal 0.0000e+00 0.0000e+00 -1.2555e+01
    outer loop
      vertex 3.650 0.000 0.400
      vertex 6.350 4.650 0.400
      vertex 6.350 0.000 0.400
    endloop
  endfacet
  facet normal 0.0000e+00 0.0000e+00 1.2555e+01
    outer loop
      vertex 3.650 0.000 1.600
      vertex 6.350 0.000 1.600
      vertex 6.350 4.650 1.600
    endloop
  endfacet
  facet normal 0.0000e+00 0.0000e+00 1.2555e+01
    outer loop
      vertex 3.650 0.000 1.600
      vertex 6.350 4.650 1.600
      vertex 3.650 4.650 1.600
    endloop
  endfacet
  facet normal 0.0000e+00 -3.2400e+00 0.0000e+00
    outer loop
      vertex 3.650 0.000 0.400
      vertex 6.350 0.000 0.400
      vertex 6.350 0.000 1.600
    endloop
  endfacet
  facet normal 0.0000e+00 -3.2400e+00 0.0000e+00
    outer loop
      vertex 3.650 0.000 0.400
      vertex 6.350 0.000 1.600
      vertex 3.650 0.000 1.600
    endloop
  endfacet
  facet normal 5.5800e+00 0.0000e+00 0.0000e+00
    outer loop
      vertex 6.350 0.000 0.400
      vertex 6.350 4.650 0.400
      vertex 6.350 4.650 1.600
    endloop
  endfacet
  facet normal 5.5800e+00 0.0000e+00 0.0000e+00
    outer loop
      vertex 6.350 0.000 0.400
      vertex 6.350 4.650 1.600
      vertex 6.350 0.000 1.600
    endloop
  endfacet
  facet normal 0.0000e+00 3.2400e+00 0.0000e+00
    outer loop
      vertex 6.350 4.650 0.400
      vertex 3.650 4.650 0.400
      vertex 3.650 4.650 1.600
    endloop
  endfacet
  facet normal 0.0000e+00 3.2400e+00 -0.0000e+00
    outer loop
      vertex 6.350 4.650 0.400
      vertex 3.650 4.650 1.600
      vertex 6.350 4.650 1.600
    endloop
  endfacet
  facet normal -5.5800e+00 0.0000e+00 0.0000e+00
    outer loop
      vertex 3.650 4.650 0.400
      vertex 3.650 0.000 0.400
      vertex 3.650 0.000 1.600
    endloop
  endfacet
  facet normal -5.5800e+00 0.0000e+00 0.0000e+00
    outer loop
      vertex 3.650 4.650 0.400
      vertex 3.650 0.000 1.600
      vertex 3.650 4.650 1.600
    endloop
  endfacet
  facet normal 0.0000e+00 0.0000e+00 -6.8310e+01
    outer loop
      vertex 3.650 7.350 0.400
      vertex 3.650 32.650 0.400
      vertex 6.350 32.650 0.400
    endloop
  endfacet
  facet normal 0.0000e+00 0.0000e+00 -6.8310e+01
    outer loop
      vertex 3.650 7.350 0.400
      vertex 6.350 32.650 0.400
      vertex 6.350 7.350 0.400
    endloop
  endfacet
  facet normal 0.0000e+00 0.0000e+00 6.8310e+01
    outer loop
      vertex 3.650 7.350 1.600
      vertex 6.350 7.350 1.600
      vertex 6.350 32.650 1.600
    endloop
  endfacet
  facet normal 0.0000e+00 0.0000e+00 6.8310e+01
    outer loop
      vertex 3.650 7.350 1.600
      vertex 6.350 32.650 1.600
      vertex 3.650 32.650 1.600
    endloop
  endfacet
  facet normal 0.0000e+00 -3.2400e+00 0.0000e+00
    outer loop
      vertex 3.650 7.350 0.400
      vertex 6.350 7.350 0.400
      vertex 6.350 7.350 1.600
    endloop
  endfacet
  facet normal 0.0000e+00 -3.2400e+00 0.0000e+00
    outer loop
      vertex 3.650 7.350 0.400
      vertex 6.350 7.350 1.600
      vertex 3.650 7.350 1.600
    endloop
  endfacet
  facet normal 3.0360e+01 0.0000e+00 0.0000e+00
    outer loop
      vertex 6.350 7.350 0.400
      vertex 6.350 32.650 0.400
      vertex 6.350 32.650 1.600
    endloop
  endfacet
  facet normal 3.0360e+01 0.0000e+00 0.0000e+00
    outer loop
      vertex 6.350 7.350 0.400
      vertex 6.350 32.650 1.600
      vertex 6.350 7.350 1.600
    endloop
  endfacet
  facet normal 0.0000e+00 3.2400e+00 0.0000e+00
    outer loop
      vertex 6.350 32.650 0.400
      vertex 3.650 32.650 0.400
      vertex 3.650 32.650 1.600
    endloop
  endfacet
  facet normal 0.0000e+00 3.2400e+00 -0.0000e+00
    outer loop
      vertex 6.350 32.650 0.400
      vertex 3.650 32.650 1.600
      vertex 6.350 32.650 1.600
    endloop
  endfacet
  facet normal -3.0360e+01 0.0000e+00 0.0000e+00
    outer loop
      vertex 3.650 32.650 0.400
      vertex 3.650 7.350 0.400
      vertex 3.650 7.350 1.600
    endloop
  endfacet
  facet normal -3.0360e+01 0.0000e+00 0.0000e+00
    outer loop
      vertex 3.650 32.650 0.400
      vertex 3.650 7.350 1.600
      vertex 3.650 32.650 1.600
    endloop
  endfacet
  facet normal 0.0000e+00 0.0000e+00 -1.2555e+01
    outer loop
      vertex 3.650 35.350 0.400
      vertex 3.650 40.000 0.400
      vertex 6.350 40.000 0.400
    endloop
  endfacet
  facet normal 0.0000e+00 0.0000e+00 -1.2555e+01
    outer loop
      vertex 3.650 35.350 0.400
      vertex 6.350 40.000 0.400
      vertex 6.350 35.350 0.400
    endloop
  endfacet
  facet normal 0.0000e+00 0.0000e+00 1.2555e+01
    outer loop
      vertex 3.650 35.350 1.600
      vertex 6.350 35.350 1.600
      vertex 6.350 40.000 1.600
    endloop
  endfacet
  facet normal 0.0000e+00 0.0000e+00 1.2555e+01
    outer loop
      vertex 3.650 35.350 1.600
      vertex 6.350 40.000 1.600
      vertex 3.650 40.000 1.600
    endloop
  endfacet
  facet normal 0.0000e+00 -3.2400e+00 0.0000e+00
    outer loop
      vertex 3.650 35.350 0.400
      vertex 6.350 35.350 0.400
      vertex 6.350 35.350 1.600
    endloop
  endfacet
  facet normal 0.0000e+00 -3.2400e+00 0.0000e+00
    outer loop
      vertex 3.650 35.350 0.400
      vertex 6.350 35.350 1.600
      vertex 3.650 35.350 1.600
    endloop
  endfacet
  facet normal 5.5800e+00 0.0000e+00 0.0000e+00
    outer loop
      vertex 6.350 35.350 0.400
      vertex 6.350 40.000 0.400
      vertex 6.350 40.000 1.600
    endloop
  endfacet
  facet normal 5.5800e+00 0.0000e+00 0.0000e+00
    outer loop
      vertex 6.350 35.350 0.400
      vertex 6.350 40.000 1.600
      vertex 6.350 35.350 1.600
    endloop
  endfacet
  facet normal 0.0000e+00 3.2400e+00 0.0000e+00
    outer loop
      vertex 6.350 40.000 0.400
      vertex 3.650 40.000 0.400
      vertex 3.650 40.000 1.600
    endloop
  endfacet
  facet normal 0.0000e+00 3.2400e+00 -0.0000e+00
    outer loop
      vertex 6.350 40.000 0.400
      vertex 3.650 40.000 1.600
      vertex 6.350 40.000 1.600
    endloop
  endfacet
  facet normal -5.5800e+00 0.0000e+00 0.0000e+00
    outer loop
      vertex 3.650 40.000 0.400
      vertex 3.650 35.350 0.400
      vertex 3.650 35.350 1.600
    endloop
  endfacet
  facet normal -5.5800e+00 0.0000e+00 0.0000e+00
    outer loop
      vertex 3.650 40.000 0.400
      vertex 3.650 35.350 1.600
      vertex 3.650 40.000 1.600
    endloop
  endfacet
  facet normal 0.0000e+00 0.0000e+00 -1.8260e+03
    outer loop
      vertex 6.350 0.000 0.400
      vertex 6.350 40.000 0.400
      vertex 52.000 40.000 0.400
    endloop
  endfacet
  facet normal 0.0000e+00 0.0000e+00 -1.8260e+03
    outer loop
      vertex 6.350 0.000 0.400
      vertex 52.000 40.000 0.400
      vertex 52.000 0.000 0.400
    endloop
  endfacet
  facet normal 0.0000e+00 0.0000e+00 1.8260e+03
    outer loop
      vertex 6.350 0.000 1.600
      vertex 52.000 0.000 1.600
      vertex 52.000 40.000 1.600
    endloop
  endfacet
  facet normal 0.0000e+00 0.0000e+00 1.8260e+03
    outer loop
      vertex 6.350 0.000 1.600
      vertex 52.000 40.000 1.600
      vertex 6.350 40.000 1.600
    endloop
  endfacet
  facet normal 0.0000e+00 -5.4780e+01 0.0000e+00
    outer loop
      vertex 6.350 0.000 0.400
      vertex 52.000 0.000 0.400
      vertex 52.000 0.000 1.600
    endloop
  endfacet
  facet normal 0.0000e+00 -5.4780e+01 0.0000e+00
    outer loop
      vertex 6.350 0.000 0.400
      vertex 52.000 0.000 1.600
      vertex 6.350 0.000 1.600
    endloop
  endfacet
  facet normal 4.8000e+01 0.0000e+00 0.0000e+00
    outer loop
      vertex 52.000 0.000 0.400
      vertex 52.000 40.000 0.400
      vertex 52.000 40.000 1.600
    endloop
  endfacet
  facet normal 4.8000e+01 0.0000e+00 0.0000e+00
    outer loop
      vertex 52.000 0.000 0.400
      vertex 52.000 40.000 1.600
      vertex 52.000 0.000 1.600
    endloop
  endfacet
  facet normal 0.0000e+00 5.4780e+01 0.0000e+00
    outer loop
      vertex 52.000 40.000 0.400
      vertex 6.350 40.000 0.400
      vertex 6.350 40.000 1.600
    endloop
  endfacet
  facet normal 0.0000e+00 5.4780e+01 -0.0000e+00
    outer loop
      vertex 52.000 40.000 0.400
      vertex 6.350 40.000 1.600
      vertex 52.000 40.000 1.600
    endloop
  endfacet
  facet normal -4.8000e+01 0.0000e+00 0.0000e+00
    outer loop
      vertex 6.350 40.000 0.400
      vertex 6.350 0.000 0.400
      vertex 6.350 0.000 1.600
    endloop
  endfacet
  facet normal -4.8000e+01 0.0000e+00 0.0000e+00
    outer loop
      vertex 6.350 40.000 0.400
      vertex 6.350 0.000 1.600
      vertex 6.350 40.000 1.600
    endloop
  endfacet
  facet normal 0.0000e+00 0.0000e+00 -4.4800e+01
    outer loop
      vertex 52.000 0.000 0.400
      vertex 52.000 16.000 0.400
      vertex 54.800 16.000 0.400
    endloop
  endfacet
  facet normal 0.0000e+00 0.0000e+00 -4.4800e+01
    outer loop
      vertex 52.000 0.000 0.400
      vertex 54.800 16.000 0.400
      vertex 54.800 0.000 0.400
    endloop
  endfacet
  facet normal 0.0000e+00 0.0000e+00 4.4800e+01
    outer loop
      vertex 52.000 0.000 1.600
      vertex 54.800 0.000 1.600
      vertex 54.800 16.000 1.600
    endloop
  endfacet
  facet normal 0.0000e+00 0.0000e+00 4.4800e+01
    outer loop
      vertex 52.000 0.000 1.600
      vertex 54.800 16.000 1.600
      vertex 52.000 16.000 1.600
    endloop
  endfacet
  facet normal 0.0000e+00 -3.3600e+00 0.0000e+00
    outer loop
      vertex 52.000 0.000 0.400
      vertex 54.800 0.000 0.400
      vertex 54.800 0.000 1.600
    endloop
  endfacet
  facet normal 0.0000e+00 -3.3600e+00 0.0000e+00
    outer loop
      vertex 52.000 0.000 0.400
      vertex 54.800 0.000 1.600
      vertex 52.000 0.000 1.600
    endloop
  endfacet
  facet normal 1.9200e+01 0.0000e+00 0.0000e+00
    outer loop
      vertex 54.800 0.000 0.400
      vertex 54.800 16.000 0.400
      vertex 54.800 16.000 1.600
    endloop
  endfacet
  facet normal 1.9200e+01 0.0000e+00 0.0000e+00
    outer loop
      vertex 54.800 0.000 0.400
      vertex 54.800 16.000 1.600
      vertex 54.800 0.000 1.600
    endloop
  endfacet
  facet normal 0.0000e+00 3.3600e+00 0.0000e+00
    outer loop
      vertex 54.800 16.000 0.400
      vertex 52.000 16.000 0.400
      vertex 52.000 16.000 1.600
    endloop
  endfacet
  facet normal 0.0000e+00 3.3600e+00 -0.0000e+00
    outer loop
      vertex 54.800 16.000 0.400
      vertex 52.000 16.000 1.600
      vertex 54.800 16.000 1.600
    endloop
  endfacet
  facet normal -1.9200e+01 0.0000e+00 0.0000e+00
    outer loop
      vertex 52.000 16.000 0.400
      vertex 52.000 0.000 0.400
      vertex 52.000 0.000 1.600
    endloop
  endfacet
  facet normal -1.9200e+01 0.0000e+00 0.0000e+00
    outer loop
      vertex 52.000 16.000 0.400
      vertex 52.000 0.000 1.600
      vertex 52.000 16.000 1.600
    endloop
  endfacet
  facet normal 0.0000e+00 0.0000e+00 -5.2640e+01
    outer loop
      vertex 52.000 21.200 0.400
      vertex 52.000 40.000 0.400
      vertex 54.800 40.000 0.400
    endloop
  endfacet
  facet normal 0.0000e+00 0.0000e+00 -5.2640e+01
    outer loop
      vertex 52.000 21.200 0.400
      vertex 54.800 40.000 0.400
      vertex 54.800 21.200 0.400
    endloop
  endfacet
  facet normal 0.0000e+00 0.0000e+00 5.2640e+01
    outer loop
      vertex 52.000 21.200 1.600
      vertex 54.800 21.200 1.600
      vertex 54.800 40.000 1.600
    endloop
  endfacet
  facet normal 0.0000e+00 0.0000e+00 5.2640e+01
    outer loop
      vertex 52.000 21.200 1.600
      vertex 54.800 40.000 1.600
      vertex 52.000 40.000 1.600
    endloop
  endfacet
  facet normal 0.0000e+00 -3.3600e+00 0.0000e+00
    outer loop
      vertex 52.000 21.200 0.400
      vertex 54.800 21.200 0.400
      vertex 54.800 21.200 1.600
    endloop
  endfacet
  facet normal 0.0000e+00 -3.3600e+00 0.0000e+00
    outer loop
      vertex 52.000 21.200 0.400
      vertex 54.800 21.200 1.600
      vertex 52.000 21.200 1.600
    endloop
  endfacet
  facet normal 2.2560e+01 0.0000e+00 0.0000e+00
    outer loop
      vertex 54.800 21.200 0.400
      vertex 54.800 40.000 0.400
      vertex 54.800 40.000 1.600
    endloop
  endfacet
  facet normal 2.2560e+01 0.0000e+00 0.0000e+00
    outer loop
      vertex 54.800 21.200 0.400
      vertex 54.800 40.000 1.600
      vertex 54.800 21.200 1.600
    endloop
  endfacet
  facet normal 0.0000e+00 3.3600e+00 0.0000e+00
    outer loop
      vertex 54.800 40.000 0.400
      vertex 52.000 40.000 0.400
      vertex 52.000 40.000 1.600
    endloop
  endfacet
  facet normal 0.0000e+00 3.3600e+00 -0.0000e+00
    outer loop
      vertex 54.800 40.000 0.400
      vertex 52.000 40.000 1.600
      vertex 54.800 40.000 1.600
    endloop
  endfacet
  facet normal -2.2560e+01 0.0000e+00 0.0000e+00
    outer loop
      vertex 52.000 40.000 0.400
      vertex 52.000 21.200 0.400
      vertex 52.000 21.200 1.600
    endloop
  endfacet
  facet normal -2.2560e+01 0.0000e+00 0.0000e+00
    outer loop
      vertex 52.000 40.000 0.400
      vertex 52.000 21.200 1.600
      vertex 52.000 40.000 1.600
    endloop
  endfacet
  facet normal 0.0000e+00 0.0000e+00 -3.4000e+01
    outer loop
      vertex 54.800 0.000 0.400
      vertex 54.800 40.000 0.400
      vertex 55.650 40.000 0.400
    endloop
  endfacet
  facet normal 0.0000e+00 0.0000e+00 -3.4000e+01
    outer loop
      vertex 54.800 0.000 0.400
      vertex 55.650 40.000 0.400
      vertex 55.650 0.000 0.400
    endloop
  endfacet
  facet normal 0.0000e+00 0.0000e+00 3.4000e+01
    outer loop
      vertex 54.800 0.000 1.600
      vertex 55.650 0.000 1.600
      vertex 55.650 40.000 1.600
    endloop
  endfacet
  facet normal 0.0000e+00 0.0000e+00 3.4000e+01
    outer loop
      vertex 54.800 0.000 1.600
      vertex 55.650 40.000 1.600
      vertex 54.800 40.000 1.600
    endloop
  endfacet
  facet normal 0.0000e+00 -1.0200e+00 0.0000e+00
    outer loop
      vertex 54.800 0.000 0.400
      vertex 55.650 0.000 0.400
      vertex 55.650 0.000 1.600
    endloop
  endfacet
  facet normal 0.0000e+00 -1.0200e+00 0.0000e+00
    outer loop
      vertex 54.800 0.000 0.400
      vertex 55.650 0.000 1.600
      vertex 54.800 0.000 1.600
    endloop
  endfacet
  facet normal 4.8000e+01 0.0000e+00 0.0000e+00
    outer loop
      vertex 55.650 0.000 0.400
      vertex 55.650 40.000 0.400
      vertex 55.650 40.000 1.600
    endloop
  endfacet
  facet normal 4.8000e+01 0.0000e+00 0.0000e+00
    outer loop
      vertex 55.650 0.000 0.400
      vertex 55.650 40.000 1.600
      vertex 55.650 0.000 1.600
    endloop
  endfacet
  facet normal 0.0000e+00 1.0200e+00 0.0000e+00
    outer loop
      vertex 55.650 40.000 0.400
      vertex 54.800 40.000 0.400
      vertex 54.800 40.000 1.600
    endloop
  endfacet
  facet normal 0.0000e+00 1.0200e+00 -0.0000e+00
    outer loop
      vertex 55.650 40.000 0.400
      vertex 54.800 40.000 1.600
      vertex 55.650 40.000 1.600
    endloop
  endfacet
  facet normal -4.8000e+01 0.0000e+00 0.0000e+00
    outer loop
      vertex 54.800 40.000 0.400
      vertex 54.800 0.000 0.400
      vertex 54.800 0.000 1.600
    endloop
  endfacet
  facet normal -4.8000e+01 0.0000e+00 0.0000e+00
    outer loop
      vertex 54.800 40.000 0.400
      vertex 54.800 0.000 1.600
      vertex 54.800 40.000 1.600
    endloop
  endfacet
  facet normal 0.0000e+00 0.0000e+00 -1.2555e+01
    outer loop
      vertex 55.650 0.000 0.400
      vertex 55.650 4.650 0.400
      vertex 58.350 4.650 0.400
    endloop
  endfacet
  facet normal 0.0000e+00 0.0000e+00 -1.2555e+01
    outer loop
      vertex 55.650 0.000 0.400
      vertex 58.350 4.650 0.400
      vertex 58.350 0.000 0.400
    endloop
  endfacet
  facet normal 0.0000e+00 0.0000e+00 1.2555e+01
    outer loop
      vertex 55.650 0.000 1.600
      vertex 58.350 0.000 1.600
      vertex 58.350 4.650 1.600
    endloop
  endfacet
  facet normal 0.0000e+00 0.0000e+00 1.2555e+01
    outer loop
      vertex 55.650 0.000 1.600
      vertex 58.350 4.650 1.600
      vertex 55.650 4.650 1.600
    endloop
  endfacet
  facet normal 0.0000e+00 -3.2400e+00 0.0000e+00
    outer loop
      vertex 55.650 0.000 0.400
      vertex 58.350 0.000 0.400
      vertex 58.350 0.000 1.600
    endloop
  endfacet
  facet normal 0.0000e+00 -3.2400e+00 0.0000e+00
    outer loop
      vertex 55.650 0.000 0.400
      vertex 58.350 0.000 1.600
      vertex 55.650 0.000 1.600
    endloop
  endfacet
  facet normal 5.5800e+00 0.0000e+00 0.0000e+00
    outer loop
      vertex 58.350 0.000 0.400
      vertex 58.350 4.650 0.400
      vertex 58.350 4.650 1.600
    endloop
  endfacet
  facet normal 5.5800e+00 0.0000e+00 0.0000e+00
    outer loop
      vertex 58.350 0.000 0.400
      vertex 58.350 4.650 1.600
      vertex 58.350 0.000 1.600
    endloop
  endfacet
  facet normal 0.0000e+00 3.2400e+00 0.0000e+00
    outer loop
      vertex 58.350 4.650 0.400
      vertex 55.650 4.650 0.400
      vertex 55.650 4.650 1.600
    endloop
  endfacet
  facet normal 0.0000e+00 3.2400e+00 -0.0000e+00
    outer loop
      vertex 58.350 4.650 0.400
      vertex 55.650 4.650 1.600
      vertex 58.350 4.650 1.600
    endloop
  endfacet
  facet normal -5.5800e+00 0.0000e+00 0.0000e+00
    outer loop
      vertex 55.650 4.650 0.400
      vertex 55.650 0.000 0.400
      vertex 55.650 0.000 1.600
    endloop
  endfacet
  facet normal -5.5800e+00 0.0000e+00 0.0000e+00
    outer loop
      vertex 55.650 4.650 0.400
      vertex 55.650 0.000 1.600
      vertex 55.650 4.650 1.600
    endloop
  endfacet
  facet normal 0.0000e+00 0.0000e+00 -6.8310e+01
    outer loop
      vertex 55.650 7.350 0.400
      vertex 55.650 32.650 0.400
      vertex 58.350 32.650 0.400
    endloop
  endfacet
  facet normal 0.0000e+00 0.0000e+00 -6.8310e+01
    outer loop
      vertex 55.650 7.350 0.400
      vertex 58.350 32.650 0.400
      vertex 58.350 7.350 0.400
    endloop
  endfacet
  facet normal 0.0000e+00 0.0000e+00 6.8310e+01
    outer loop
      vertex 55.650 7.350 1.600
      vertex 58.350 7.350 1.600
      vertex 58.350 32.650 1.600
    endloop
  endfacet
  facet normal 0.0000e+00 0.0000e+00 6.8310e+01
    outer loop
      vertex 55.650 7.350 1.600
      vertex 58.350 32.650 1.600
      vertex 55.650 32.650 1.600
    endloop
  endfacet
  facet normal 0.0000e+00 -3.2400e+00 0.0000e+00
    outer loop
      vertex 55.650 7.350 0.400
      vertex 58.350 7.350 0.400
      vertex 58.350 7.350 1.600
    endloop
  endfacet
  facet normal 0.0000e+00 -3.2400e+00 0.0000e+00
    outer loop
      vertex 55.650 7.350 0.400
      vertex 58.350 7.350 1.600
      vertex 55.650 7.350 1.600
    endloop
  endfacet
  facet normal 3.0360e+01 0.0000e+00 0.0000e+00
    outer loop
      vertex 58.350 7.350 0.400
      vertex 58.350 32.650 0.400
      vertex 58.350 32.650 1.600
    endloop
  endfacet
  facet normal 3.0360e+01 0.0000e+00 0.0000e+00
    outer loop
      vertex 58.350 7.350 0.400
      vertex 58.350 32.650 1.600
      vertex 58.350 7.350 1.600
    endloop
  endfacet
  facet normal 0.0000e+00 3.2400e+00 0.0000e+00
    outer loop
      vertex 58.350 32.650 0.400
      vertex 55.650 32.650 0.400
      vertex 55.650 32.650 1.600
    endloop
  endfacet
  facet normal 0.0000e+00 3.2400e+00 -0.0000e+00
    outer loop
      vertex 58.350 32.650 0.400
      vertex 55.650 32.650 1.600
      vertex 58.350 32.650 1.600
    endloop
  endfacet
  facet normal -3.0360e+01 0.0000e+00 0.0000e+00
    outer loop
      vertex 55.650 32.650 0.400
      vertex 55.650 7.350 0.400
      vertex 55.650 7.350 1.600
    endloop
  endfacet
  facet normal -3.0360e+01 0.0000e+00 0.0000e+00
    outer loop
      vertex 55.650 32.650 0.400
      vertex 55.650 7.350 1.600
      vertex 55.650 32.650 1.600
    endloop
  endfacet
  facet normal 0.0000e+00 0.0000e+00 -1.2555e+01
    outer loop
      vertex 55.650 35.350 0.400
      vertex 55.650 40.000 0.400
      vertex 58.350 40.000 0.400
    endloop
  endfacet
  facet normal 0.0000e+00 0.0000e+00 -1.2555e+01
    outer loop
      vertex 55.650 35.350 0.400
      vertex 58.350 40.000 0.400
      vertex 58.350 35.350 0.400
    endloop
  endfacet
  facet normal 0.0000e+00 0.0000e+00 1.2555e+01
    outer loop
      vertex 55.650 35.350 1.600
      vertex 58.350 35.350 1.600
      vertex 58.350 40.000 1.600
    endloop
  endfacet
  facet normal 0.0000e+00 0.0000e+00 1.2555e+01
    outer loop
      vertex 55.650 35.350 1.600
      vertex 58.350 40.000 1.600
      vertex 55.650 40.000 1.600
    endloop
  endfacet
  facet normal 0.0000e+00 -3.2400e+00 0.0000e+00
    outer loop
      vertex 55.650 35.350 0.400
      vertex 58.350 35.350 0.400
      vertex 58.350 35.350 1.600
    endloop
  endfacet
  facet normal 0.0000e+00 -3.2400e+00 0.0000e+00
    outer loop
      vertex 55.650 35.350 0.400
      vertex 58.350 35.350 1.600
      vertex 55.650 35.350 1.600
    endloop
  endfacet
  facet normal 5.5800e+00 0.0000e+00 0.0000e+00
    outer loop
      vertex 58.350 35.350 0.400
      vertex 58.350 40.000 0.400
      vertex 58.350 40.000 1.600
    endloop
  endfacet
  facet normal 5.5800e+00 0.0000e+00 0.0000e+00
    outer loop
      vertex 58.350 35.350 0.400
      vertex 58.350 40.000 1.600
      vertex 58.350 35.350 1.600
    endloop
  endfacet
  facet normal 0.0000e+00 3.2400e+00 0.0000e+00
    outer loop
      vertex 58.350 40.000 0.400
      vertex 55.650 40.000 0.400
      vertex 55.650 40.000 1.600
    endloop
  endfacet
  facet normal 0.0000e+00 3.2400e+00 -0.0000e+00
    outer loop
      vertex 58.350 40.000 0.400
      vertex 55.650 40.000 1.600
      vertex 58.350 40.000 1.600
    endloop
  endfacet
  facet normal -5.5800e+00 0.0000e+00 0.0000e+00
    outer loop
      vertex 55.650 40.000 0.400
      vertex 55.650 35.350 0.400
      vertex 55.650 35.350 1.600
    endloop
  endfacet
  facet normal -5.5800e+00 0.0000e+00 0.0000e+00
    outer loop
      vertex 55.650 40.000 0.400
      vertex 55.650 35.350 1.600
      vertex 55.650 40.000 1.600
    endloop
  endfacet
  facet normal 0.0000e+00 0.0000e+00 -2.2600e+02
    outer loop
      vertex 58.350 0.000 0.400
      vertex 58.350 40.000 0.400
      vertex 64.000 40.000 0.400
    endloop
  endfacet
  facet normal 0.0000e+00 0.0000e+00 -2.2600e+02
    outer loop
      vertex 58.350 0.000 0.400
      vertex 64.000 40.000 0.400
      vertex 64.000 0.000 0.400
    endloop
  endfacet
  facet normal 0.0000e+00 0.0000e+00 2.2600e+02
    outer loop
      vertex 58.350 0.000 1.600
      vertex 64.000 0.000 1.600
      vertex 64.000 40.000 1.600
    endloop
  endfacet
  facet normal 0.0000e+00 0.0000e+00 2.2600e+02
    outer loop
      vertex 58.350 0.000 1.600
      vertex 64.000 40.000 1.600
      vertex 58.350 40.000 1.600
    endloop
  endfacet
  facet normal 0.0000e+00 -6.7800e+00 0.0000e+00
    outer loop
      vertex 58.350 0.000 0.400
      vertex 64.000 0.000 0.400
      vertex 64.000 0.000 1.600
    endloop
  endfacet
  facet normal 0.0000e+00 -6.7800e+00 0.0000e+00
    outer loop
      vertex 58.350 0.000 0.400
      vertex 64.000 0.000 1.600
      vertex 58.350 0.000 1.600
    endloop
  endfacet
  facet normal 4.8000e+01 0.0000e+00 0.0000e+00
    outer loop
      vertex 64.000 0.000 0.400
      vertex 64.000 40.000 0.400
      vertex 64.000 40.000 1.600
    endloop
  endfacet
  facet normal 4.8000e+01 0.0000e+00 0.0000e+00
    outer loop
      vertex 64.000 0.000 0.400
      vertex 64.000 40.000 1.600
      vertex 64.000 0.000 1.600
    endloop
  endfacet
  facet normal 0.0000e+00 6.7800e+00 0.0000e+00
    outer loop
      vertex 64.000 40.000 0.400
      vertex 58.350 40.000 0.400
      vertex 58.350 40.000 1.600
    endloop
  endfacet
  facet normal 0.0000e+00 6.7800e+00 -0.0000e+00
    outer loop
      vertex 64.000 40.000 0.400
      vertex 58.350 40.000 1.600
      vertex 64.000 40.000 1.600
    endloop
  endfacet
  facet normal -4.8000e+01 0.0000e+00 0.0000e+00
    outer loop
      vertex 58.350 40.000 0.400
      vertex 58.350 0.000 0.400
      vertex 58.350 0.000 1.600
    endloop
  endfacet
  facet normal -4.8000e+01 0.0000e+00 0.0000e+00
    outer loop
      vertex 58.350 40.000 0.400
      vertex 58.350 0.000 1.600
      vertex 58.350 40.000 1.600
    endloop
  endfacet
  facet normal 0.0000e+00 0.0000e+00 -2.6393e+01
    outer loop
      vertex 0.950 0.950 1.600
      vertex 0.950 11.300 1.600
      vertex 3.500 11.300 1.600
    endloop
  endfacet
  facet normal 0.0000e+00 0.0000e+00 -2.6393e+01
    outer loop
      vertex 0.950 0.950 1.600
      vertex 3.500 11.300 1.600
      vertex 3.500 0.950 1.600
    endloop
  endfacet
  facet normal 0.0000e+00 0.0000e+00 2.6393e+01
    outer loop
      vertex 0.950 0.950 2.650
      vertex 3.500 0.950 2.650
      vertex 3.500 11.300 2.650
    endloop
  endfacet
  facet normal 0.0000e+00 0.0000e+00 2.6393e+01
    outer loop
      vertex 0.950 0.950 2.650
      vertex 3.500 11.300 2.650
      vertex 0.950 11.300 2.650
    endloop
  endfacet
  facet normal 0.0000e+00 -2.6775e+00 0.0000e+00
    outer loop
      vertex 0.950 0.950 1.600
      vertex 3.500 0.950 1.600
      vertex 3.500 0.950 2.650
    endloop
  endfacet
  facet normal 0.0000e+00 -2.6775e+00 0.0000e+00
    outer loop
      vertex 0.950 0.950 1.600
      vertex 3.500 0.950 2.650
      vertex 0.950 0.950 2.650
    endloop
  endfacet
  facet normal 1.0868e+01 0.0000e+00 0.0000e+00
    outer loop
      vertex 3.500 0.950 1.600
      vertex 3.500 11.300 1.600
      vertex 3.500 11.300 2.650
    endloop
  endfacet
  facet normal 1.0868e+01 0.0000e+00 0.0000e+00
    outer loop
      vertex 3.500 0.950 1.600
      vertex 3.500 11.300 2.650
      vertex 3.500 0.950 2.650
    endloop
  endfacet
  facet normal 0.0000e+00 2.6775e+00 0.0000e+00
    outer loop
      vertex 3.500 11.300 1.600
      vertex 0.950 11.300 1.600
      vertex 0.950 11.300 2.650
    endloop
  endfacet
  facet normal 0.0000e+00 2.6775e+00 -0.0000e+00
    outer loop
      vertex 3.500 11.300 1.600
      vertex 0.950 11.300 2.650
      vertex 3.500 11.300 2.650
    endloop
  endfacet
  facet normal -1.0868e+01 0.0000e+00 0.0000e+00
    outer loop
      vertex 0.950 11.300 1.600
      vertex 0.950 0.950 1.600
      vertex 0.950 0.950 2.650
    endloop
  endfacet
  facet normal -1.0868e+01 0.0000e+00 0.0000e+00
    outer loop
      vertex 0.950 11.300 1.600
      vertex 0.950 0.950 2.650
      vertex 0.950 11.300 2.650
    endloop
  endfacet
  facet normal 0.0000e+00 0.0000e+00 -6.6300e+00
    outer loop
      vertex 0.950 14.700 1.600
      vertex 0.950 17.300 1.600
      vertex 3.500 17.300 1.600
    endloop
  endfacet
  facet normal 0.0000e+00 0.0000e+00 -6.6300e+00
    outer loop
      vertex 0.950 14.700 1.600
      vertex 3.500 17.300 1.600
      vertex 3.500 14.700 1.600
    endloop
  endfacet
  facet normal 0.0000e+00 0.0000e+00 6.6300e+00
    outer loop
      vertex 0.950 14.700 2.650
      vertex 3.500 14.700 2.650
      vertex 3.500 17.300 2.650
    endloop
  endfacet
  facet normal 0.0000e+00 0.0000e+00 6.6300e+00
    outer loop
      vertex 0.950 14.700 2.650
      vertex 3.500 17.300 2.650
      vertex 0.950 17.300 2.650
    endloop
  endfacet
  facet normal 0.0000e+00 -2.6775e+00 0.0000e+00
    outer loop
      vertex 0.950 14.700 1.600
      vertex 3.500 14.700 1.600
      vertex 3.500 14.700 2.650
    endloop
  endfacet
  facet normal 0.0000e+00 -2.6775e+00 0.0000e+00
    outer loop
      vertex 0.950 14.700 1.600
      vertex 3.500 14.700 2.650
      vertex 0.950 14.700 2.650
    endloop
  endfacet
  facet normal 2.7300e+00 0.0000e+00 0.0000e+00
    outer loop
      vertex 3.500 14.700 1.600
      vertex 3.500 17.300 1.600
      vertex 3.500 17.300 2.650
    endloop
  endfacet
  facet normal 2.7300e+00 0.0000e+00 0.0000e+00
    outer loop
      vertex 3.500 14.700 1.600
      vertex 3.500 17.300 2.650
      vertex 3.500 14.700 2.650
    endloop
  endfacet
  facet normal 0.0000e+00 2.6775e+00 0.0000e+00
    outer loop
      vertex 3.500 17.300 1.600
      vertex 0.950 17.300 1.600
      vertex 0.950 17.300 2.650
    endloop
  endfacet
  facet normal 0.0000e+00 2.6775e+00 -0.0000e+00
    outer loop
      vertex 3.500 17.300 1.600
      vertex 0.950 17.300 2.650
      vertex 3.500 17.300 2.650
    endloop
  endfacet
  facet normal -2.7300e+00 0.0000e+00 0.0000e+00
    outer loop
      vertex 0.950 17.300 1.600
      vertex 0.950 14.700 1.600
      vertex 0.950 14.700 2.650
    endloop
  endfacet
  facet normal -2.7300e+00 0.0000e+00 0.0000e+00
    outer loop
      vertex 0.950 17.300 1.600
      vertex 0.950 14.700 2.650
      vertex 0.950 17.300 2.650
    endloop
  endfacet
  facet normal 0.0000e+00 0.0000e+00 -6.6300e+00
    outer loop
      vertex 0.950 20.700 1.600
      vertex 0.950 23.300 1.600
      vertex 3.500 23.300 1.600
    endloop
  endfacet
  facet normal 0.0000e+00 0.0000e+00 -6.6300e+00
    outer loop
      vertex 0.950 20.700 1.600
      vertex 3.500 23.300 1.600
      vertex 3.500 20.700 1.600
    endloop
  endfacet
  facet normal 0.0000e+00 0.0000e+00 6.6300e+00
    outer loop
      vertex 0.950 20.700 2.650
      vertex 3.500 20.700 2.650
      vertex 3.500 23.300 2.650
    endloop
  endfacet
  facet normal 0.0000e+00 0.0000e+00 6.6300e+00
    outer loop
      vertex 0.950 20.700 2.650
      vertex 3.500 23.300 2.650
      vertex 0.950 23.300 2.650
    endloop
  endfacet
  facet normal 0.0000e+00 -2.6775e+00 0.0000e+00
    outer loop
      vertex 0.950 20.700 1.600
      vertex 3.500 20.700 1.600
      vertex 3.500 20.700 2.650
    endloop
  endfacet
  facet normal 0.0000e+00 -2.6775e+00 0.0000e+00
    outer loop
      vertex 0.950 20.700 1.600
      vertex 3.500 20.700 2.650
      vertex 0.950 20.700 2.650
    endloop
  endfacet
  facet normal 2.7300e+00 0.0000e+00 0.0000e+00
    outer loop
      vertex 3.500 20.700 1.600
      vertex 3.500 23.300 1.600
      vertex 3.500 23.300 2.650
    endloop
  endfacet
  facet normal 2.7300e+00 0.0000e+00 0.0000e+00
    outer loop
      vertex 3.500 20.700 1.600
      vertex 3.500 23.300 2.650
      vertex 3.500 20.700 2.650
    endloop
  endfacet
  facet normal 0.0000e+00 2.6775e+00 0.0000e+00
    outer loop
      vertex 3.500 23.300 1.600
      vertex 0.950 23.300 1.600
      vertex 0.950 23.300 2.650
    endloop
  endfacet
  facet normal 0.0000e+00 2.6775e+00 -0.0000e+00
    outer loop
      vertex 3.500 23.300 1.600
      vertex 0.950 23.300 2.650
      vertex 3.500 23.300 2.650
    endloop
  endfacet
  facet normal -2.7300e+00 0.0000e+00 0.0000e+00
    outer loop
      vertex 0.950 23.300 1.600
      vertex 0.950 20.700 1.600
      vertex 0.950 20.700 2.650
    endloop
  endfacet
  facet normal -2.7300e+00 0.0000e+00 0.0000e+00
    outer loop
      vertex 0.950 23.300 1.600
      vertex 0.950 20.700 2.650
      vertex 0.950 23.300 2.650
    endloop
  endfacet
  facet normal 0.0000e+00 0.0000e+00 -3.1493e+01
    outer loop
      vertex 0.950 26.700 1.600
      vertex 0.950 39.050 1.600
      vertex 3.500 39.050 1.600
    endloop
  endfacet
  facet normal 0.0000e+00 0.0000e+00 -3.1493e+01
    outer loop
      vertex 0.950 26.700 1.600
      vertex 3.500 39.050 1.600
      vertex 3.500 26.700 1.600
    endloop
  endfacet
  facet normal 0.0000e+00 0.0000e+00 3.1493e+01
    outer loop
      vertex 0.950 26.700 2.650
      vertex 3.500 26.700 2.650
      vertex 3.500 39.050 2.650
    endloop
  endfacet
  facet normal 0.0000e+00 0.0000e+00 3.1493e+01
    outer loop
      vertex 0.950 26.700 2.650
      vertex 3.500 39.050 2.650
      vertex 0.950 39.050 2.650
    endloop
  endfacet
  facet normal 0.0000e+00 -2.6775e+00 0.0000e+00
    outer loop
      vertex 0.950 26.700 1.600
      vertex 3.500 26.700 1.600
      vertex 3.500 26.700 2.650
    endloop
  endfacet
  facet normal 0.0000e+00 -2.6775e+00 0.0000e+00
    outer loop
      vertex 0.950 26.700 1.600
      vertex 3.500 26.700 2.650
      vertex 0.950 26.700 2.650
    endloop
  endfacet
  facet normal 1.2968e+01 0.0000e+00 0.0000e+00
    outer loop
      vertex 3.500 26.700 1.600
      vertex 3.500 39.050 1.600
      vertex 3.500 39.050 2.650
    endloop
  endfacet
  facet normal 1.2968e+01 0.0000e+00 0.0000e+00
    outer loop
      vertex 3.500 26.700 1.600
      vertex 3.500 39.050 2.650
      vertex 3.500 26.700 2.650
    endloop
  endfacet
  facet normal 0.0000e+00 2.6775e+00 0.0000e+00
    outer loop
      vertex 3.500 39.050 1.600
      vertex 0.950 39.050 1.600
      vertex 0.950 39.050 2.650
    endloop
  endfacet
  facet normal 0.0000e+00 2.6775e+00 -0.0000e+00
    outer loop
      vertex 3.500 39.050 1.600
      vertex 0.950 39.050 2.650
      vertex 3.500 39.050 2.650
    endloop
  endfacet
  facet normal -1.2968e+01 0.0000e+00 0.0000e+00
    outer loop
      vertex 0.950 39.050 1.600
      vertex 0.950 26.700 1.600
      vertex 0.950 26.700 2.650
    endloop
  endfacet
  facet normal -1.2968e+01 0.0000e+00 0.0000e+00
    outer loop
      vertex 0.950 39.050 1.600
      vertex 0.950 26.700 2.650
      vertex 0.950 39.050 2.650
    endloop
  endfacet
  facet normal 0.0000e+00 0.0000e+00 -5.7150e+00
    outer loop
      vertex 3.500 0.950 1.600
      vertex 3.500 39.050 1.600
      vertex 3.650 39.050 1.600
    endloop
  endfacet
  facet normal 0.0000e+00 0.0000e+00 -5.7150e+00
    outer loop
      vertex 3.500 0.950 1.600
      vertex 3.650 39.050 1.600
      vertex 3.650 0.950 1.600
    endloop
  endfacet
  facet normal 0.0000e+00 0.0000e+00 5.7150e+00
    outer loop
      vertex 3.500 0.950 2.650
      vertex 3.650 0.950 2.650
      vertex 3.650 39.050 2.650
    endloop
  endfacet
  facet normal 0.0000e+00 0.0000e+00 5.7150e+00
    outer loop
      vertex 3.500 0.950 2.650
      vertex 3.650 39.050 2.650
      vertex 3.500 39.050 2.650
    endloop
  endfacet
  facet normal 0.0000e+00 -1.5750e-01 0.0000e+00
    outer loop
      vertex 3.500 0.950 1.600
      vertex 3.650 0.950 1.600
      vertex 3.650 0.950 2.650
    endloop
  endfacet
  facet normal 0.0000e+00 -1.5750e-01 0.0000e+00
    outer loop
      vertex 3.500 0.950 1.600
      vertex 3.650 0.950 2.650
      vertex 3.500 0.950 2.650
    endloop
  endfacet
  facet normal 4.0005e+01 0.0000e+00 0.0000e+00
    outer loop
      vertex 3.650 0.950 1.600
      vertex 3.650 39.050 1.600
      vertex 3.650 39.050 2.650
    endloop
  endfacet
  facet normal 4.0005e+01 0.0000e+00 0.0000e+00
    outer loop
      vertex 3.650 0.950 1.600
      vertex 3.650 39.050 2.650
      vertex 3.650 0.950 2.650
    endloop
  endfacet
  facet normal 0.0000e+00 1.5750e-01 0.0000e+00
    outer loop
      vertex 3.650 39.050 1.600
      vertex 3.500 39.050 1.600
      vertex 3.500 39.050 2.650
    endloop
  endfacet
  facet normal 0.0000e+00 1.5750e-01 -0.0000e+00
    outer loop
      vertex 3.650 39.050 1.600
      vertex 3.500 39.050 2.650
      vertex 3.650 39.050 2.650
    endloop
  endfacet
  facet normal -4.0005e+01 0.0000e+00 0.0000e+00
    outer loop
      vertex 3.500 39.050 1.600
      vertex 3.500 0.950 1.600
      vertex 3.500 0.950 2.650
    endloop
  endfacet
  facet normal -4.0005e+01 0.0000e+00 0.0000e+00
    outer loop
      vertex 3.500 39.050 1.600
      vertex 3.500 0.950 2.650
      vertex 3.500 39.050 2.650
    endloop
  endfacet
  facet normal 0.0000e+00 0.0000e+00 -9.9900e+00
    outer loop
      vertex 3.650 0.950 1.600
      vertex 3.650 4.650 1.600
      vertex 6.350 4.650 1.600
    endloop
  endfacet
  facet normal 0.0000e+00 0.0000e+00 -9.9900e+00
    outer loop
      vertex 3.650 0.950 1.600
      vertex 6.350 4.650 1.600
      vertex 6.350 0.950 1.600
    endloop
  endfacet
  facet normal 0.0000e+00 0.0000e+00 9.9900e+00
    outer loop
      vertex 3.650 0.950 2.650
      vertex 6.350 0.950 2.650
      vertex 6.350 4.650 2.650
    endloop
  endfacet
  facet normal 0.0000e+00 0.0000e+00 9.9900e+00
    outer loop
      vertex 3.650 0.950 2.650
      vertex 6.350 4.650 2.650
      vertex 3.650 4.650 2.650
    endloop
  endfacet
  facet normal 0.0000e+00 -2.8350e+00 0.0000e+00
    outer loop
      vertex 3.650 0.950 1.600
      vertex 6.350 0.950 1.600
      vertex 6.350 0.950 2.650
    endloop
  endfacet
  facet normal 0.0000e+00 -2.8350e+00 0.0000e+00
    outer loop
      vertex 3.650 0.950 1.600
      vertex 6.350 0.950 2.650
      vertex 3.650 0.950 2.650
    endloop
  endfacet
  facet normal 3.8850e+00 0.0000e+00 0.0000e+00
    outer loop
      vertex 6.350 0.950 1.600
      vertex 6.350 4.650 1.600
      vertex 6.350 4.650 2.650
    endloop
  endfacet
  facet normal 3.8850e+00 0.0000e+00 0.0000e+00
    outer loop
      vertex 6.350 0.950 1.600
      vertex 6.350 4.650 2.650
      vertex 6.350 0.950 2.650
    endloop
  endfacet
  facet normal 0.0000e+00 2.8350e+00 0.0000e+00
    outer loop
      vertex 6.350 4.650 1.600
      vertex 3.650 4.650 1.600
      vertex 3.650 4.650 2.650
    endloop
  endfacet
  facet normal 0.0000e+00 2.8350e+00 -0.0000e+00
    outer loop
      vertex 6.350 4.650 1.600
      vertex 3.650 4.650 2.650
      vertex 6.350 4.650 2.650
    endloop
  endfacet
  facet normal -3.8850e+00 0.0000e+00 0.0000e+00
    outer loop
      vertex 3.650 4.650 1.600
      vertex 3.650 0.950 1.600
      vertex 3.650 0.950 2.650
    endloop
  endfacet
  facet normal -3.8850e+00 0.0000e+00 0.0000e+00
    outer loop
      vertex 3.650 4.650 1.600
      vertex 3.650 0.950 2.650
      vertex 3.650 4.650 2.650
    endloop
  endfacet
  facet normal 0.0000e+00 0.0000e+00 -6.8310e+01
    outer loop
      vertex 3.650 7.350 1.600
      vertex 3.650 32.650 1.600
      vertex 6.350 32.650 1.600
    endloop
  endfacet
  facet normal 0.0000e+00 0.0000e+00 -6.8310e+01
    outer loop
      vertex 3.650 7.350 1.600
      vertex 6.350 32.650 1.600
      vertex 6.350 7.350 1.600
    endloop
  endfacet
  facet normal 0.0000e+00 0.0000e+00 6.8310e+01
    outer loop
      vertex 3.650 7.350 2.650
      vertex 6.350 7.350 2.650
      vertex 6.350 32.650 2.650
    endloop
  endfacet
  facet normal 0.0000e+00 0.0000e+00 6.8310e+01
    outer loop
      vertex 3.650 7.350 2.650
      vertex 6.350 32.650 2.650
      vertex 3.650 32.650 2.650
    endloop
  endfacet
  facet normal 0.0000e+00 -2.8350e+00 0.0000e+00
    outer loop
      vertex 3.650 7.350 1.600
      vertex 6.350 7.350 1.600
      vertex 6.350 7.350 2.650
    endloop
  endfacet
  facet normal 0.0000e+00 -2.8350e+00 0.0000e+00
    outer loop
      vertex 3.650 7.350 1.600
      vertex 6.350 7.350 2.650
      vertex 3.650 7.350 2.650
    endloop
  endfacet
  facet normal 2.6565e+01 0.0000e+00 0.0000e+00
    outer loop
      vertex 6.350 7.350 1.600
      vertex 6.350 32.650 1.600
      vertex 6.350 32.650 2.650
    endloop
  endfacet
  facet normal 2.6565e+01 0.0000e+00 0.0000e+00
    outer loop
      vertex 6.350 7.350 1.600
      vertex 6.350 32.650 2.650
      vertex 6.350 7.350 2.650
    endloop
  endfacet
  facet normal 0.0000e+00 2.8350e+00 0.0000e+00
    outer loop
      vertex 6.350 32.650 1.600
      vertex 3.650 32.650 1.600
      vertex 3.650 32.650 2.650
    endloop
  endfacet
  facet normal 0.0000e+00 2.8350e+00 -0.0000e+00
    outer loop
      vertex 6.350 32.650 1.600
      vertex 3.650 32.650 2.650
      vertex 6.350 32.650 2.650
    endloop
  endfacet
  facet normal -2.6565e+01 0.0000e+00 0.0000e+00
    outer loop
      vertex 3.650 32.650 1.600
      vertex 3.650 7.350 1.600
      vertex 3.650 7.350 2.650
    endloop
  endfacet
  facet normal -2.6565e+01 0.0000e+00 0.0000e+00
    outer loop
      vertex 3.650 32.650 1.600
      vertex 3.650 7.350 2.650
      vertex 3.650 32.650 2.650
    endloop
  endfacet
  facet normal 0.0000e+00 0.0000e+00 -9.9900e+00
    outer loop
      vertex 3.650 35.350 1.600
      vertex 3.650 39.050 1.600
      vertex 6.350 39.050 1.600
    endloop
  endfacet
  facet normal 0.0000e+00 0.0000e+00 -9.9900e+00
    outer loop
      vertex 3.650 35.350 1.600
      vertex 6.350 39.050 1.600
      vertex 6.350 35.350 1.600
    endloop
  endfacet
  facet normal 0.0000e+00 0.0000e+00 9.9900e+00
    outer loop
      vertex 3.650 35.350 2.650
      vertex 6.350 35.350 2.650
      vertex 6.350 39.050 2.650
    endloop
  endfacet
  facet normal 0.0000e+00 0.0000e+00 9.9900e+00
    outer loop
      vertex 3.650 35.350 2.650
      vertex 6.350 39.050 2.650
      vertex 3.650 39.050 2.650
    endloop
  endfacet
  facet normal 0.0000e+00 -2.8350e+00 0.0000e+00
    outer loop
      vertex 3.650 35.350 1.600
      vertex 6.350 35.350 1.600
      vertex 6.350 35.350 2.650
    endloop
  endfacet
  facet normal 0.0000e+00 -2.8350e+00 0.0000e+00
    outer loop
      vertex 3.650 35.350 1.600
      vertex 6.350 35.350 2.650
      vertex 3.650 35.350 2.650
    endloop
  endfacet
  facet normal 3.8850e+00 0.0000e+00 0.0000e+00
    outer loop
      vertex 6.350 35.350 1.600
      vertex 6.350 39.050 1.600
      vertex 6.350 39.050 2.650
    endloop
  endfacet
  facet normal 3.8850e+00 0.0000e+00 0.0000e+00
    outer loop
      vertex 6.350 35.350 1.600
      vertex 6.350 39.050 2.650
      vertex 6.350 35.350 2.650
    endloop
  endfacet
  facet normal 0.0000e+00 2.8350e+00 0.0000e+00
    outer loop
      vertex 6.350 39.050 1.600
      vertex 3.650 39.050 1.600
      vertex 3.650 39.050 2.650
    endloop
  endfacet
  facet normal 0.0000e+00 2.8350e+00 -0.0000e+00
    outer loop
      vertex 6.350 39.050 1.600
      vertex 3.650 39.050 2.650
      vertex 6.350 39.050 2.650
    endloop
  endfacet
  facet normal -3.8850e+00 0.0000e+00 0.0000e+00
    outer loop
      vertex 3.650 39.050 1.600
      vertex 3.650 35.350 1.600
      vertex 3.650 35.350 2.650
    endloop
  endfacet
  facet normal -3.8850e+00 0.0000e+00 0.0000e+00
    outer loop
      vertex 3.650 39.050 1.600
      vertex 3.650 35.350 2.650
      vertex 3.650 39.050 2.650
    endloop
  endfacet
  facet normal 0.0000e+00 0.0000e+00 -1.8783e+03
    outer loop
      vertex 6.350 0.950 1.600
      vertex 6.350 39.050 1.600
      vertex 55.650 39.050 1.600
    endloop
  endfacet
  facet normal 0.0000e+00 0.0000e+00 -1.8783e+03
    outer loop
      vertex 6.350 0.950 1.600
      vertex 55.650 39.050 1.600
      vertex 55.650 0.950 1.600
    endloop
  endfacet
  facet normal 0.0000e+00 0.0000e+00 1.8783e+03
    outer loop
      vertex 6.350 0.950 2.650
      vertex 55.650 0.950 2.650
      vertex 55.650 39.050 2.650
    endloop
  endfacet
  facet normal 0.0000e+00 0.0000e+00 1.8783e+03
    outer loop
      vertex 6.350 0.950 2.650
      vertex 55.650 39.050 2.650
      vertex 6.350 39.050 2.650
    endloop
  endfacet
  facet normal 0.0000e+00 -5.1765e+01 0.0000e+00
    outer loop
      vertex 6.350 0.950 1.600
      vertex 55.650 0.950 1.600
      vertex 55.650 0.950 2.650
    endloop
  endfacet
  facet normal 0.0000e+00 -5.1765e+01 0.0000e+00
    outer loop
      vertex 6.350 0.950 1.600
      vertex 55.650 0.950 2.650
      vertex 6.350 0.950 2.650
    endloop
  endfacet
  facet normal 4.0005e+01 0.0000e+00 0.0000e+00
    outer loop
      vertex 55.650 0.950 1.600
      vertex 55.650 39.050 1.600
      vertex 55.650 39.050 2.650
    endloop
  endfacet
  facet normal 4.0005e+01 0.0000e+00 0.0000e+00
    outer loop
      vertex 55.650 0.950 1.600
      vertex 55.650 39.050 2.650
      vertex 55.650 0.950 2.650
    endloop
  endfacet
  facet normal 0.0000e+00 5.1765e+01 0.0000e+00
    outer loop
      vertex 55.650 39.050 1.600
      vertex 6.350 39.050 1.600
      vertex 6.350 39.050 2.650
    endloop
  endfacet
  facet normal 0.0000e+00 5.1765e+01 -0.0000e+00
    outer loop
      vertex 55.650 39.050 1.600
      vertex 6.350 39.050 2.650
      vertex 55.650 39.050 2.650
    endloop
  endfacet
  facet normal -4.0005e+01 0.0000e+00 0.0000e+00
    outer loop
      vertex 6.350 39.050 1.600
      vertex 6.350 0.950 1.600
      vertex 6.350 0.950 2.650
    endloop
  endfacet
  facet normal -4.0005e+01 0.0000e+00 0.0000e+00
    outer loop
      vertex 6.350 39.050 1.600
      vertex 6.350 0.950 2.650
      vertex 6.350 39.050 2.650
    endloop
  endfacet
  facet normal 0.0000e+00 0.0000e+00 -9.9900e+00
    outer loop
      vertex 55.650 0.950 1.600
      vertex 55.650 4.650 1.600
      vertex 58.350 4.650 1.600
    endloop
  endfacet
  facet normal 0.0000e+00 0.0000e+00 -9.9900e+00
    outer loop
      vertex 55.650 0.950 1.600
      vertex 58.350 4.650 1.600
      vertex 58.350 0.950 1.600
    endloop
  endfacet
  facet normal 0.0000e+00 0.0000e+00 9.9900e+00
    outer loop
      vertex 55.650 0.950 2.650
      vertex 58.350 0.950 2.650
      vertex 58.350 4.650 2.650
    endloop
  endfacet
  facet normal 0.0000e+00 0.0000e+00 9.9900e+00
    outer loop
      vertex 55.650 0.950 2.650
      vertex 58.350 4.650 2.650
      vertex 55.650 4.650 2.650
    endloop
  endfacet
  facet normal 0.0000e+00 -2.8350e+00 0.0000e+00
    outer loop
      vertex 55.650 0.950 1.600
      vertex 58.350 0.950 1.600
      vertex 58.350 0.950 2.650
    endloop
  endfacet
  facet normal 0.0000e+00 -2.8350e+00 0.0000e+00
    outer loop
      vertex 55.650 0.950 1.600
      vertex 58.350 0.950 2.650
      vertex 55.650 0.950 2.650
    endloop
  endfacet
  facet normal 3.8850e+00 0.0000e+00 0.0000e+00
    outer loop
      vertex 58.350 0.950 1.600
      vertex 58.350 4.650 1.600
      vertex 58.350 4.650 2.650
    endloop
  endfacet
  facet normal 3.8850e+00 0.0000e+00 0.0000e+00
    outer loop
      vertex 58.350 0.950 1.600
      vertex 58.350 4.650 2.650
      vertex 58.350 0.950 2.650
    endloop
  endfacet
  facet normal 0.0000e+00 2.8350e+00 0.0000e+00
    outer loop
      vertex 58.350 4.650 1.600
      vertex 55.650 4.650 1.600
      vertex 55.650 4.650 2.650
    endloop
  endfacet
  facet normal 0.0000e+00 2.8350e+00 -0.0000e+00
    outer loop
      vertex 58.350 4.650 1.600
      vertex 55.650 4.650 2.650
      vertex 58.350 4.650 2.650
    endloop
  endfacet
  facet normal -3.8850e+00 0.0000e+00 0.0000e+00
    outer loop
      vertex 55.650 4.650 1.600
      vertex 55.650 0.950 1.600
      vertex 55.650 0.950 2.650
    endloop
  endfacet
  facet normal -3.8850e+00 0.0000e+00 0.0000e+00
    outer loop
      vertex 55.650 4.650 1.600
      vertex 55.650 0.950 2.650
      vertex 55.650 4.650 2.650
    endloop
  endfacet
  facet normal 0.0000e+00 0.0000e+00 -6.8310e+01
    outer loop
      vertex 55.650 7.350 1.600
      vertex 55.650 32.650 1.600
      vertex 58.350 32.650 1.600
    endloop
  endfacet
  facet normal 0.0000e+00 0.0000e+00 -6.8310e+01
    outer loop
      vertex 55.650 7.350 1.600
      vertex 58.350 32.650 1.600
      vertex 58.350 7.350 1.600
    endloop
  endfacet
  facet normal 0.0000e+00 0.0000e+00 6.8310e+01
    outer loop
      vertex 55.650 7.350 2.650
      vertex 58.350 7.350 2.650
      vertex 58.350 32.650 2.650
    endloop
  endfacet
  facet normal 0.0000e+00 0.0000e+00 6.8310e+01
    outer loop
      vertex 55.650 7.350 2.650
      vertex 58.350 32.650 2.650
      vertex 55.650 32.650 2.650
    endloop
  endfacet
  facet normal 0.0000e+00 -2.8350e+00 0.0000e+00
    outer loop
      vertex 55.650 7.350 1.600
      vertex 58.350 7.350 1.600
      vertex 58.350 7.350 2.650
    endloop
  endfacet
  facet normal 0.0000e+00 -2.8350e+00 0.0000e+00
    outer loop
      vertex 55.650 7.350 1.600
      vertex 58.350 7.350 2.650
      vertex 55.650 7.350 2.650
    endloop
  endfacet
  facet normal 2.6565e+01 0.0000e+00 0.0000e+00
    outer loop
      vertex 58.350 7.350 1.600
      vertex 58.350 32.650 1.600
      vertex 58.350 32.650 2.650
    endloop
  endfacet
  facet normal 2.6565e+01 0.0000e+00 0.0000e+00
    outer loop
      vertex 58.350 7.350 1.600
      vertex 58.350 32.650 2.650
      vertex 58.350 7.350 2.650
    endloop
  endfacet
  facet normal 0.0000e+00 2.8350e+00 0.0000e+00
    outer loop
      vertex 58.350 32.650 1.600
      vertex 55.650 32.650 1.600
      vertex 55.650 32.650 2.650
    endloop
  endfacet
  facet normal 0.0000e+00 2.8350e+00 -0.0000e+00
    outer loop
      vertex 58.350 32.650 1.600
      vertex 55.650 32.650 2.650
      vertex 58.350 32.650 2.650
    endloop
  endfacet
  facet normal -2.6565e+01 0.0000e+00 0.0000e+00
    outer loop
      vertex 55.650 32.650 1.600
      vertex 55.650 7.350 1.600
      vertex 55.650 7.350 2.650
    endloop
  endfacet
  facet normal -2.6565e+01 0.0000e+00 0.0000e+00
    outer loop
      vertex 55.650 32.650 1.600
      vertex 55.650 7.350 2.650
      vertex 55.650 32.650 2.650
    endloop
  endfacet
  facet normal 0.0000e+00 0.0000e+00 -9.9900e+00
    outer loop
      vertex 55.650 35.350 1.600
      vertex 55.650 39.050 1.600
      vertex 58.350 39.050 1.600
    endloop
  endfacet
  facet normal 0.0000e+00 0.0000e+00 -9.9900e+00
    outer loop
      vertex 55.650 35.350 1.600
      vertex 58.350 39.050 1.600
      vertex 58.350 35.350 1.600
    endloop
  endfacet
  facet normal 0.0000e+00 0.0000e+00 9.9900e+00
    outer loop
      vertex 55.650 35.350 2.650
      vertex 58.350 35.350 2.650
      vertex 58.350 39.050 2.650
    endloop
  endfacet
  facet normal 0.0000e+00 0.0000e+00 9.9900e+00
    outer loop
      vertex 55.650 35.350 2.650
      vertex 58.350 39.050 2.650
      vertex 55.650 39.050 2.650
    endloop
  endfacet
  facet normal 0.0000e+00 -2.8350e+00 0.0000e+00
    outer loop
      vertex 55.650 35.350 1.600
      vertex 58.350 35.350 1.600
      vertex 58.350 35.350 2.650
    endloop
  endfacet
  facet normal 0.0000e+00 -2.8350e+00 0.0000e+00
    outer loop
      vertex 55.650 35.350 1.600
      vertex 58.350 35.350 2.650
      vertex 55.650 35.350 2.650
    endloop
  endfacet
  facet normal 3.8850e+00 0.0000e+00 0.0000e+00
    outer loop
      vertex 58.350 35.350 1.600
      vertex 58.350 39.050 1.600
      vertex 58.350 39.050 2.650
    endloop
  endfacet
  facet normal 3.8850e+00 0.0000e+00 0.0000e+00
    outer loop
      vertex 58.350 35.350 1.600
      vertex 58.350 39.050 2.650
      vertex 58.350 35.350 2.650
    endloop
  endfacet
  facet normal 0.0000e+00 2.8350e+00 0.0000e+00
    outer loop
      vertex 58.350 39.050 1.600
      vertex 55.650 39.050 1.600
      vertex 55.650 39.050 2.650
    endloop
  endfacet
  facet normal 0.0000e+00 2.8350e+00 -0.0000e+00
    outer loop
      vertex 58.350 39.050 1.600
      vertex 55.650 39.050 2.650
      vertex 58.350 39.050 2.650
    endloop
  endfacet
  facet normal -3.8850e+00 0.0000e+00 0.0000e+00
    outer loop
      vertex 55.650 39.050 1.600
      vertex 55.650 35.350 1.600
      vertex 55.650 35.350 2.650
    endloop
  endfacet
  facet normal -3.8850e+00 0.0000e+00 0.0000e+00
    outer loop
      vertex 55.650 39.050 1.600
      vertex 55.650 35.350 2.650
      vertex 55.650 39.050 2.650
    endloop
  endfacet
  facet normal 0.0000e+00 0.0000e+00 -1.7907e+02
    outer loop
      vertex 58.350 0.950 1.600
      vertex 58.350 39.050 1.600
      vertex 63.050 39.050 1.600
    endloop
  endfacet
  facet normal 0.0000e+00 0.0000e+00 -1.7907e+02
    outer loop
      vertex 58.350 0.950 1.600
      vertex 63.050 39.050 1.600
      vertex 63.050 0.950 1.600
    endloop
  endfacet
  facet normal 0.0000e+00 0.0000e+00 1.7907e+02
    outer loop
      vertex 58.350 0.950 2.650
      vertex 63.050 0.950 2.650
      vertex 63.050 39.050 2.650
    endloop
  endfacet
  facet normal 0.0000e+00 0.0000e+00 1.7907e+02
    outer loop
      vertex 58.350 0.950 2.650
      vertex 63.050 39.050 2.650
      vertex 58.350 39.050 2.650
    endloop
  endfacet
  facet normal 0.0000e+00 -4.9350e+00 0.0000e+00
    outer loop
      vertex 58.350 0.950 1.600
      vertex 63.050 0.950 1.600
      vertex 63.050 0.950 2.650
    endloop
  endfacet
  facet normal 0.0000e+00 -4.9350e+00 0.0000e+00
    outer loop
      vertex 58.350 0.950 1.600
      vertex 63.050 0.950 2.650
      vertex 58.350 0.950 2.650
    endloop
  endfacet
  facet normal 4.0005e+01 0.0000e+00 0.0000e+00
    outer loop
      vertex 63.050 0.950 1.600
      vertex 63.050 39.050 1.600
      vertex 63.050 39.050 2.650
    endloop
  endfacet
  facet normal 4.0005e+01 0.0000e+00 0.0000e+00
    outer loop
      vertex 63.050 0.950 1.600
      vertex 63.050 39.050 2.650
      vertex 63.050 0.950 2.650
    endloop
  endfacet
  facet normal 0.0000e+00 4.9350e+00 0.0000e+00
    outer loop
      vertex 63.050 39.050 1.600
      vertex 58.350 39.050 1.600
      vertex 58.350 39.050 2.650
    endloop
  endfacet
  facet normal 0.0000e+00 4.9350e+00 -0.0000e+00
    outer loop
      vertex 63.050 39.050 1.600
      vertex 58.350 39.050 2.650
      vertex 63.050 39.050 2.650
    endloop
  endfacet
  facet normal -4.0005e+01 0.0000e+00 0.0000e+00
    outer loop
      vertex 58.350 39.050 1.600
      vertex 58.350 0.950 1.600
      vertex 58.350 0.950 2.650
    endloop
  endfacet
  facet normal -4.0005e+01 0.0000e+00 0.0000e+00
    outer loop
      vertex 58.350 39.050 1.600
      vertex 58.350 0.950 2.650
      vertex 58.350 39.050 2.650
    endloop
  endfacet
endsolid padtap_lid
