%FSLAX36Y36*%
%MOMM*%
G04 GTO*
%LPD*%
%ADD10C,0.150*%
%ADD11C,0.400*%
D10*
X8800000Y10300000D03*
X8800000Y18300000D03*
X8800000Y26300000D03*
X5000000Y31500000D03*
X75200000Y6200000D03*
X97000000Y19800000D03*
X18000000Y9800000D03*
X18000000Y17900000D03*
X18000000Y27000000D03*
X34000000Y10600000D03*
D11*
X32000000Y16200000D03*
D10*
X34000000Y22500000D03*
X40500000Y18400000D03*
X43500000Y18400000D03*
X40500000Y24900000D03*
X27500000Y24900000D03*
X34000000Y36000000D03*
X42500000Y38400000D03*
X52500000Y36600000D03*
D11*
X50500000Y42200000D03*
D10*
X60000000Y38400000D03*
X60000000Y42900000D03*
X52500000Y20600000D03*
D11*
X50500000Y26200000D03*
D10*
X63500000Y16500000D03*
X63500000Y22400000D03*
X66500000Y22400000D03*
X63500000Y11900000D03*
X63500000Y28900000D03*
X66500000Y28900000D03*
X70500000Y28900000D03*
X78000000Y34400000D03*
X78000000Y38400000D03*
X84000000Y34400000D03*
X84000000Y38400000D03*
X75000000Y26100000D03*
X75000000Y24900000D03*
X72400000Y36800000D03*
X80400000Y36800000D03*
X72400000Y40600000D03*
X80400000Y40600000D03*
X68000000Y6900000D03*
X82000000Y6900000D03*
X68000000Y4200000D03*
X70000000Y1600000D03*
X80000000Y1600000D03*
X62000000Y6900000D03*
X90500000Y22000000D03*
M02*
