%FSLAX36Y36*%
%MOMM*%
G04 GTP*
%LPD*%
%ADD10R,1.550X2.050*%
%ADD11R,1.850X2.150*%
%ADD12R,1.450X2.350*%
%ADD13R,0.950X1.200*%
%ADD14R,1.400X0.500*%
%ADD15R,1.850X3.050*%
%ADD16R,1.100X1.000*%
%ADD17R,0.950X0.950*%
%ADD18R,3.550X3.050*%
%ADD19R,1.050X0.900*%
%ADD20R,0.700X0.600*%
%ADD21R,0.700X0.800*%
%ADD22R,1.500X0.600*%
%ADD23R,0.230X1.000*%
%ADD24R,0.800X1.100*%
%ADD25R,6.350X6.350*%
%ADD26R,1.450X1.150*%
D10*
X11250000Y10000000D03*
D10*
X15750000Y10000000D03*
D11*
X11150000Y16500000D03*
D11*
X15850000Y16500000D03*
D12*
X11900000Y23500000D03*
D12*
X15100000Y23500000D03*
D13*
X18550000Y10000000D03*
D13*
X20450000Y10000000D03*
D14*
X24350000Y12405000D03*
D14*
X29650000Y12405000D03*
D14*
X24350000Y11135000D03*
D14*
X29650000Y11135000D03*
D14*
X24350000Y9865000D03*
D14*
X29650000Y9865000D03*
D14*
X24350000Y8595000D03*
D14*
X29650000Y8595000D03*
D15*
X24700000Y19500000D03*
D15*
X29300000Y19500000D03*
D16*
X18850000Y19500000D03*
D16*
X22150000Y19500000D03*
D17*
X33500000Y13550000D03*
D17*
X33500000Y15450000D03*
D17*
X36000000Y13550000D03*
D17*
X36000000Y15450000D03*
D13*
X32550000Y10500000D03*
D13*
X34450000Y10500000D03*
D13*
X32550000Y19500000D03*
D13*
X34450000Y19500000D03*
D13*
X35050000Y19500000D03*
D13*
X36950000Y19500000D03*
D13*
X21050000Y6500000D03*
D13*
X22950000Y6500000D03*
D18*
X28500000Y28500000D03*
D19*
X24300000Y26200000D03*
D19*
X24300000Y28500000D03*
D19*
X24300000Y30800000D03*
D13*
X33050000Y28500000D03*
D13*
X34950000Y28500000D03*
D13*
X35550000Y28500000D03*
D13*
X37450000Y28500000D03*
D14*
X41350000Y30405000D03*
D14*
X46650000Y30405000D03*
D14*
X41350000Y29135000D03*
D14*
X46650000Y29135000D03*
D14*
X41350000Y27865000D03*
D14*
X46650000Y27865000D03*
D14*
X41350000Y26595000D03*
D14*
X46650000Y26595000D03*
D13*
X49550000Y28500000D03*
D13*
X51450000Y28500000D03*
D13*
X49550000Y31500000D03*
D13*
X51450000Y31500000D03*
D13*
X49550000Y25500000D03*
D13*
X51450000Y25500000D03*
D13*
X38050000Y22000000D03*
D13*
X39950000Y22000000D03*
D16*
X37350000Y25500000D03*
D16*
X40650000Y25500000D03*
D14*
X10850000Y31905000D03*
D14*
X16150000Y31905000D03*
D14*
X10850000Y30635000D03*
D14*
X16150000Y30635000D03*
D14*
X10850000Y29365000D03*
D14*
X16150000Y29365000D03*
D14*
X10850000Y28095000D03*
D14*
X16150000Y28095000D03*
D20*
X20050000Y29050000D03*
D20*
X20050000Y30950000D03*
D21*
X21950000Y30000000D03*
D17*
X8500000Y27050000D03*
D17*
X8500000Y28950000D03*
D17*
X8500000Y23550000D03*
D17*
X8500000Y25450000D03*
D13*
X20050000Y26500000D03*
D13*
X21950000Y26500000D03*
D17*
X8500000Y20050000D03*
D17*
X8500000Y21950000D03*
D17*
X8500000Y16550000D03*
D17*
X8500000Y18450000D03*
D13*
X4550000Y19200000D03*
D13*
X6450000Y19200000D03*
D16*
X3850000Y26500000D03*
D16*
X7150000Y26500000D03*
D13*
X39050000Y22000000D03*
D13*
X40950000Y22000000D03*
D13*
X39050000Y19000000D03*
D13*
X40950000Y19000000D03*
D13*
X43550000Y22000000D03*
D13*
X45450000Y22000000D03*
D13*
X43550000Y19000000D03*
D13*
X45450000Y19000000D03*
D16*
X46850000Y22000000D03*
D16*
X50150000Y22000000D03*
D22*
X38450000Y18200000D03*
D22*
X38450000Y16930000D03*
D22*
X38450000Y15660000D03*
D22*
X38450000Y14390000D03*
D22*
X38450000Y13120000D03*
D22*
X38450000Y11850000D03*
D22*
X38450000Y10580000D03*
D22*
X38450000Y9310000D03*
D22*
X49550000Y18200000D03*
D22*
X49550000Y16930000D03*
D22*
X49550000Y15660000D03*
D22*
X49550000Y14390000D03*
D22*
X49550000Y13120000D03*
D22*
X49550000Y11850000D03*
D22*
X49550000Y10580000D03*
D22*
X49550000Y9310000D03*
D13*
X34650000Y18200000D03*
D13*
X36550000Y18200000D03*
D13*
X35550000Y5400000D03*
D13*
X37450000Y5400000D03*
D13*
X50550000Y5400000D03*
D13*
X52450000Y5400000D03*
D13*
X35550000Y3400000D03*
D13*
X37450000Y3400000D03*
D23*
X26800000Y900000D03*
D23*
X27600000Y900000D03*
D23*
X28400000Y900000D03*
D23*
X29200000Y900000D03*
D23*
X30000000Y900000D03*
D23*
X30800000Y900000D03*
D23*
X31600000Y900000D03*
D23*
X32400000Y900000D03*
D23*
X33200000Y900000D03*
D13*
X23550000Y5400000D03*
D13*
X25450000Y5400000D03*
D13*
X34550000Y5400000D03*
D13*
X36450000Y5400000D03*
D16*
X18850000Y5400000D03*
D16*
X22150000Y5400000D03*
D24*
X50500000Y16800000D03*
D24*
X52200000Y16800000D03*
D24*
X50500000Y14400000D03*
D24*
X52200000Y14400000D03*
D17*
X54500000Y15850000D03*
D17*
X54500000Y17750000D03*
D17*
X54500000Y13450000D03*
D17*
X54500000Y15350000D03*
D25*
X52700000Y22500000D03*
D26*
X46400000Y24800000D03*
D26*
X46400000Y22500000D03*
D26*
X46400000Y20200000D03*
M02*
