%FSLAX36Y36*%
%MOMM*%
G04 GTO*
%LPD*%
%ADD10C,0.200*%
%ADD11C,0.400*%
D10*
X7600000Y10250000D03*
X7600000Y16250000D03*
X7600000Y22250000D03*
X4200000Y6650000D03*
X13500000Y7550000D03*
X13500000Y13650000D03*
X13500000Y21100000D03*
X19500000Y8250000D03*
X27000000Y6900000D03*
D11*
X25000000Y12650000D03*
D10*
X27000000Y15150000D03*
X20500000Y17550000D03*
X33500000Y12750000D03*
X36000000Y12750000D03*
X33500000Y8750000D03*
X33500000Y17750000D03*
X36000000Y17750000D03*
X22000000Y4750000D03*
X27000000Y24150000D03*
X34000000Y26750000D03*
X36500000Y26750000D03*
X44000000Y24900000D03*
D11*
X42000000Y30650000D03*
D10*
X50500000Y26750000D03*
X50500000Y29750000D03*
X50500000Y23750000D03*
X39000000Y20250000D03*
X39000000Y23550000D03*
X13500000Y26400000D03*
D11*
X11500000Y32150000D03*
D10*
X21000000Y27650000D03*
X8500000Y26250000D03*
X8500000Y22750000D03*
X21000000Y24750000D03*
X8500000Y19250000D03*
X8500000Y15750000D03*
X5500000Y17450000D03*
X5500000Y24550000D03*
X40000000Y20250000D03*
X40000000Y17250000D03*
X44500000Y20250000D03*
X44500000Y17250000D03*
X48500000Y20050000D03*
X44000000Y2800000D03*
X44000000Y21600000D03*
X35600000Y16450000D03*
X36500000Y3650000D03*
X51500000Y3650000D03*
X36500000Y1650000D03*
X30000000Y-2400000D03*
X24500000Y3650000D03*
X35500000Y3650000D03*
X20500000Y3450000D03*
X51350000Y15050000D03*
X51350000Y12650000D03*
X54500000Y15050000D03*
X54500000Y12650000D03*
X50500000Y18050000D03*
X54500000Y15400000D03*
X54500000Y11500000D03*
X18500000Y33900000D03*
X32000000Y33900000D03*
X35500000Y33900000D03*
X47500000Y33900000D03*
X22500000Y33900000D03*
M02*
