%FSLAX36Y36*%
%MOMM*%
G04 GTS*
%LPD*%
%ADD10C,3.100*%
%ADD11R,1.700X2.200*%
%ADD12R,2.000X2.300*%
%ADD13R,1.600X2.500*%
%ADD14R,1.100X1.350*%
%ADD15R,1.550X0.650*%
%ADD16R,2.000X3.200*%
%ADD17R,1.250X1.150*%
%ADD18R,1.100X1.100*%
%ADD19R,3.700X3.200*%
%ADD20R,1.200X1.050*%
%ADD21R,0.850X0.750*%
%ADD22R,0.850X0.950*%
%ADD23R,1.650X0.750*%
%ADD24C,1.400*%
%ADD25R,0.380X1.150*%
%ADD26R,0.950X1.250*%
%ADD27R,6.500X6.500*%
%ADD28R,1.600X1.300*%
%ADD29C,2.300*%
%ADD30C,5.300*%
%ADD31C,1.700*%
%ADD32C,0.680*%
%ADD33C,0.730*%
D10*
X3800000Y10000000D03*
D10*
X3800000Y16000000D03*
D10*
X3800000Y22000000D03*
D11*
X11250000Y10000000D03*
D11*
X15750000Y10000000D03*
D12*
X11150000Y16500000D03*
D12*
X15850000Y16500000D03*
D13*
X11900000Y23500000D03*
D13*
X15100000Y23500000D03*
D14*
X18550000Y10000000D03*
D14*
X20450000Y10000000D03*
D15*
X24350000Y12405000D03*
D15*
X29650000Y12405000D03*
D15*
X24350000Y11135000D03*
D15*
X29650000Y11135000D03*
D15*
X24350000Y9865000D03*
D15*
X29650000Y9865000D03*
D15*
X24350000Y8595000D03*
D15*
X29650000Y8595000D03*
D16*
X24700000Y19500000D03*
D16*
X29300000Y19500000D03*
D17*
X18850000Y19500000D03*
D17*
X22150000Y19500000D03*
D18*
X33500000Y13550000D03*
D18*
X33500000Y15450000D03*
D18*
X36000000Y13550000D03*
D18*
X36000000Y15450000D03*
D14*
X32550000Y10500000D03*
D14*
X34450000Y10500000D03*
D14*
X32550000Y19500000D03*
D14*
X34450000Y19500000D03*
D14*
X35050000Y19500000D03*
D14*
X36950000Y19500000D03*
D14*
X21050000Y6500000D03*
D14*
X22950000Y6500000D03*
D19*
X28500000Y28500000D03*
D20*
X24300000Y26200000D03*
D20*
X24300000Y28500000D03*
D20*
X24300000Y30800000D03*
D14*
X33050000Y28500000D03*
D14*
X34950000Y28500000D03*
D14*
X35550000Y28500000D03*
D14*
X37450000Y28500000D03*
D15*
X41350000Y30405000D03*
D15*
X46650000Y30405000D03*
D15*
X41350000Y29135000D03*
D15*
X46650000Y29135000D03*
D15*
X41350000Y27865000D03*
D15*
X46650000Y27865000D03*
D15*
X41350000Y26595000D03*
D15*
X46650000Y26595000D03*
D14*
X49550000Y28500000D03*
D14*
X51450000Y28500000D03*
D14*
X49550000Y31500000D03*
D14*
X51450000Y31500000D03*
D14*
X49550000Y25500000D03*
D14*
X51450000Y25500000D03*
D14*
X38050000Y22000000D03*
D14*
X39950000Y22000000D03*
D17*
X37350000Y25500000D03*
D17*
X40650000Y25500000D03*
D15*
X10850000Y31905000D03*
D15*
X16150000Y31905000D03*
D15*
X10850000Y30635000D03*
D15*
X16150000Y30635000D03*
D15*
X10850000Y29365000D03*
D15*
X16150000Y29365000D03*
D15*
X10850000Y28095000D03*
D15*
X16150000Y28095000D03*
D21*
X20050000Y29050000D03*
D21*
X20050000Y30950000D03*
D22*
X21950000Y30000000D03*
D18*
X8500000Y27050000D03*
D18*
X8500000Y28950000D03*
D18*
X8500000Y23550000D03*
D18*
X8500000Y25450000D03*
D14*
X20050000Y26500000D03*
D14*
X21950000Y26500000D03*
D18*
X8500000Y20050000D03*
D18*
X8500000Y21950000D03*
D18*
X8500000Y16550000D03*
D18*
X8500000Y18450000D03*
D14*
X4550000Y19200000D03*
D14*
X6450000Y19200000D03*
D17*
X3850000Y26500000D03*
D17*
X7150000Y26500000D03*
D14*
X39050000Y22000000D03*
D14*
X40950000Y22000000D03*
D14*
X39050000Y19000000D03*
D14*
X40950000Y19000000D03*
D14*
X43550000Y22000000D03*
D14*
X45450000Y22000000D03*
D14*
X43550000Y19000000D03*
D14*
X45450000Y19000000D03*
D17*
X46850000Y22000000D03*
D17*
X50150000Y22000000D03*
D23*
X38450000Y18200000D03*
D23*
X38450000Y16930000D03*
D23*
X38450000Y15660000D03*
D23*
X38450000Y14390000D03*
D23*
X38450000Y13120000D03*
D23*
X38450000Y11850000D03*
D23*
X38450000Y10580000D03*
D23*
X38450000Y9310000D03*
D23*
X49550000Y18200000D03*
D23*
X49550000Y16930000D03*
D23*
X49550000Y15660000D03*
D23*
X49550000Y14390000D03*
D23*
X49550000Y13120000D03*
D23*
X49550000Y11850000D03*
D23*
X49550000Y10580000D03*
D23*
X49550000Y9310000D03*
D14*
X34650000Y18200000D03*
D14*
X36550000Y18200000D03*
D14*
X35550000Y5400000D03*
D14*
X37450000Y5400000D03*
D14*
X50550000Y5400000D03*
D14*
X52450000Y5400000D03*
D14*
X35550000Y3400000D03*
D14*
X37450000Y3400000D03*
D24*
X25700000Y3200000D03*
D24*
X34300000Y3200000D03*
D25*
X26800000Y900000D03*
D25*
X27600000Y900000D03*
D25*
X28400000Y900000D03*
D25*
X29200000Y900000D03*
D25*
X30000000Y900000D03*
D25*
X30800000Y900000D03*
D25*
X31600000Y900000D03*
D25*
X32400000Y900000D03*
D25*
X33200000Y900000D03*
D14*
X23550000Y5400000D03*
D14*
X25450000Y5400000D03*
D14*
X34550000Y5400000D03*
D14*
X36450000Y5400000D03*
D17*
X18850000Y5400000D03*
D17*
X22150000Y5400000D03*
D26*
X50500000Y16800000D03*
D26*
X52200000Y16800000D03*
D26*
X50500000Y14400000D03*
D26*
X52200000Y14400000D03*
D18*
X54500000Y15850000D03*
D18*
X54500000Y17750000D03*
D18*
X54500000Y13450000D03*
D18*
X54500000Y15350000D03*
D27*
X52700000Y22500000D03*
D28*
X46400000Y24800000D03*
D28*
X46400000Y22500000D03*
D28*
X46400000Y20200000D03*
D10*
X55400000Y22500000D03*
D29*
X55400000Y27200000D03*
D29*
X55400000Y17800000D03*
D30*
X3000000Y3000000D03*
D30*
X55000000Y3000000D03*
D30*
X3000000Y31000000D03*
D30*
X55000000Y31000000D03*
D31*
X18500000Y32400000D03*
D31*
X32000000Y32400000D03*
D31*
X35500000Y32400000D03*
D31*
X47500000Y32400000D03*
D31*
X22500000Y32400000D03*
D32*
X51300000Y21100000D03*
D32*
X51300000Y22500000D03*
D32*
X51300000Y23900000D03*
D32*
X52700000Y21100000D03*
D32*
X52700000Y22500000D03*
D32*
X52700000Y23900000D03*
D32*
X54100000Y21100000D03*
D32*
X54100000Y22500000D03*
D32*
X54100000Y23900000D03*
D33*
X6000000Y6000000D03*
D33*
X6000000Y13000000D03*
D33*
X6000000Y20000000D03*
D33*
X6000000Y27000000D03*
D33*
X13000000Y6000000D03*
D33*
X13000000Y27000000D03*
D33*
X20000000Y6000000D03*
D33*
X20000000Y13000000D03*
D33*
X20000000Y20000000D03*
D33*
X20000000Y27000000D03*
D33*
X27000000Y6000000D03*
D33*
X27000000Y13000000D03*
D33*
X27000000Y20000000D03*
D33*
X27000000Y27000000D03*
D33*
X34000000Y6000000D03*
D33*
X34000000Y13000000D03*
D33*
X34000000Y20000000D03*
D33*
X34000000Y27000000D03*
D33*
X41000000Y6000000D03*
D33*
X41000000Y13000000D03*
D33*
X41000000Y20000000D03*
D33*
X41000000Y27000000D03*
D33*
X48000000Y6000000D03*
D33*
X48000000Y13000000D03*
D33*
X48000000Y20000000D03*
D33*
X48000000Y27000000D03*
D33*
X55000000Y6000000D03*
D33*
X55000000Y13000000D03*
D33*
X55000000Y20000000D03*
D33*
X55000000Y27000000D03*
D33*
X44000000Y18500000D03*
D33*
X41500000Y22000000D03*
D33*
X47000000Y22500000D03*
D33*
X53500000Y22500000D03*
M02*
