%FSLAX36Y36*%
%MOMM*%
G04 GBS*
%LPD*%
%ADD10C,3.100*%
%ADD11C,1.400*%
%ADD12C,2.300*%
%ADD13C,5.300*%
%ADD14C,1.700*%
%ADD15C,0.680*%
%ADD16C,0.730*%
D10*
X3800000Y10000000D03*
D10*
X3800000Y16000000D03*
D10*
X3800000Y22000000D03*
D11*
X25700000Y3200000D03*
D11*
X34300000Y3200000D03*
D10*
X55400000Y22500000D03*
D12*
X55400000Y27200000D03*
D12*
X55400000Y17800000D03*
D13*
X3000000Y3000000D03*
D13*
X55000000Y3000000D03*
D13*
X3000000Y31000000D03*
D13*
X55000000Y31000000D03*
D14*
X18500000Y32400000D03*
D14*
X32000000Y32400000D03*
D14*
X35500000Y32400000D03*
D14*
X47500000Y32400000D03*
D14*
X22500000Y32400000D03*
D15*
X51300000Y21100000D03*
D15*
X51300000Y22500000D03*
D15*
X51300000Y23900000D03*
D15*
X52700000Y21100000D03*
D15*
X52700000Y22500000D03*
D15*
X52700000Y23900000D03*
D15*
X54100000Y21100000D03*
D15*
X54100000Y22500000D03*
D15*
X54100000Y23900000D03*
D16*
X6000000Y6000000D03*
D16*
X6000000Y13000000D03*
D16*
X6000000Y20000000D03*
D16*
X6000000Y27000000D03*
D16*
X13000000Y6000000D03*
D16*
X13000000Y27000000D03*
D16*
X20000000Y6000000D03*
D16*
X20000000Y13000000D03*
D16*
X20000000Y20000000D03*
D16*
X20000000Y27000000D03*
D16*
X27000000Y6000000D03*
D16*
X27000000Y13000000D03*
D16*
X27000000Y20000000D03*
D16*
X27000000Y27000000D03*
D16*
X34000000Y6000000D03*
D16*
X34000000Y13000000D03*
D16*
X34000000Y20000000D03*
D16*
X34000000Y27000000D03*
D16*
X41000000Y6000000D03*
D16*
X41000000Y13000000D03*
D16*
X41000000Y20000000D03*
D16*
X41000000Y27000000D03*
D16*
X48000000Y6000000D03*
D16*
X48000000Y13000000D03*
D16*
X48000000Y20000000D03*
D16*
X48000000Y27000000D03*
D16*
X55000000Y6000000D03*
D16*
X55000000Y13000000D03*
D16*
X55000000Y20000000D03*
D16*
X55000000Y27000000D03*
D16*
X44000000Y18500000D03*
D16*
X41500000Y22000000D03*
D16*
X47000000Y22500000D03*
D16*
X53500000Y22500000D03*
M02*
