%FSLAX36Y36*%
%MOMM*%
G04 GTS*
%LPD*%
%ADD10C,3.300*%
%ADD11C,1.500*%
%ADD12R,0.400X1.200*%
%ADD13C,2.500*%
%ADD14R,1.800X2.300*%
%ADD15R,2.100X2.400*%
%ADD16R,1.700X2.500*%
%ADD17R,1.600X0.700*%
%ADD18R,2.100X3.300*%
%ADD19R,1.100X1.100*%
%ADD20R,1.100X1.400*%
%ADD21R,1.300X1.200*%
%ADD22R,3.900X3.300*%
%ADD23R,1.300X1.100*%
%ADD24R,0.900X0.800*%
%ADD25R,0.900X1.000*%
%ADD26R,1.700X0.800*%
%ADD27R,1.000X1.300*%
%ADD28R,6.600X6.600*%
%ADD29R,1.700X1.400*%
%ADD30C,5.600*%
%ADD31C,0.700*%
D10*
X4800000Y10000000D03*
D10*
X4800000Y18000000D03*
D10*
X4800000Y26000000D03*
D11*
X70900000Y3400000D03*
D11*
X79500000Y3400000D03*
D12*
X71950000Y1550000D03*
D12*
X72700000Y1550000D03*
D12*
X73450000Y1550000D03*
D12*
X74200000Y1550000D03*
D12*
X74950000Y1550000D03*
D12*
X75700000Y1550000D03*
D12*
X76450000Y1550000D03*
D12*
X77200000Y1550000D03*
D12*
X77950000Y1550000D03*
D12*
X78700000Y1550000D03*
D10*
X99000000Y26400000D03*
D13*
X94000000Y30900000D03*
D13*
X94000000Y21900000D03*
D14*
X15700000Y12000000D03*
D14*
X20300000Y12000000D03*
D15*
X15600000Y20500000D03*
D15*
X20400000Y20500000D03*
D16*
X16400000Y29000000D03*
D16*
X19600000Y29000000D03*
D17*
X31300000Y15905000D03*
D17*
X36700000Y15905000D03*
D17*
X31300000Y14635000D03*
D17*
X36700000Y14635000D03*
D17*
X31300000Y13365000D03*
D17*
X36700000Y13365000D03*
D17*
X31300000Y12095000D03*
D17*
X36700000Y12095000D03*
D18*
X31600000Y26500000D03*
D18*
X36400000Y26500000D03*
D19*
X40500000Y19050000D03*
D19*
X40500000Y20950000D03*
D19*
X43500000Y19050000D03*
D19*
X43500000Y20950000D03*
D20*
X39550000Y26500000D03*
D20*
X41450000Y26500000D03*
D21*
X25800000Y26500000D03*
D21*
X29200000Y26500000D03*
D22*
X35600000Y40000000D03*
D23*
X31200000Y37700000D03*
D23*
X31200000Y40000000D03*
D23*
X31200000Y42300000D03*
D20*
X41550000Y40000000D03*
D20*
X43450000Y40000000D03*
D17*
X49800000Y41905000D03*
D17*
X55200000Y41905000D03*
D17*
X49800000Y40635000D03*
D17*
X55200000Y40635000D03*
D17*
X49800000Y39365000D03*
D17*
X55200000Y39365000D03*
D17*
X49800000Y38095000D03*
D17*
X55200000Y38095000D03*
D20*
X59050000Y40000000D03*
D20*
X60950000Y40000000D03*
D20*
X59050000Y44500000D03*
D20*
X60950000Y44500000D03*
D17*
X49800000Y25905000D03*
D17*
X55200000Y25905000D03*
D17*
X49800000Y24635000D03*
D17*
X55200000Y24635000D03*
D17*
X49800000Y23365000D03*
D17*
X55200000Y23365000D03*
D17*
X49800000Y22095000D03*
D17*
X55200000Y22095000D03*
D24*
X62500000Y17550000D03*
D24*
X62500000Y19450000D03*
D25*
X64500000Y18500000D03*
D19*
X63500000Y23050000D03*
D19*
X63500000Y24950000D03*
D19*
X66500000Y23050000D03*
D19*
X66500000Y24950000D03*
D20*
X62550000Y13500000D03*
D20*
X64450000Y13500000D03*
D19*
X63500000Y29550000D03*
D19*
X63500000Y31450000D03*
D19*
X66500000Y29550000D03*
D19*
X66500000Y31450000D03*
D21*
X68800000Y30500000D03*
D21*
X72200000Y30500000D03*
D20*
X77050000Y36000000D03*
D20*
X78950000Y36000000D03*
D20*
X77050000Y40000000D03*
D20*
X78950000Y40000000D03*
D20*
X83050000Y36000000D03*
D20*
X84950000Y36000000D03*
D20*
X83050000Y40000000D03*
D20*
X84950000Y40000000D03*
D26*
X69400000Y22500000D03*
D26*
X69400000Y21230000D03*
D26*
X69400000Y19960000D03*
D26*
X69400000Y18690000D03*
D26*
X69400000Y17420000D03*
D26*
X69400000Y16150000D03*
D26*
X69400000Y14880000D03*
D26*
X69400000Y13610000D03*
D26*
X69400000Y12340000D03*
D26*
X69400000Y11070000D03*
D26*
X80600000Y22500000D03*
D26*
X80600000Y21230000D03*
D26*
X80600000Y19960000D03*
D26*
X80600000Y18690000D03*
D26*
X80600000Y17420000D03*
D26*
X80600000Y16150000D03*
D26*
X80600000Y14880000D03*
D26*
X80600000Y13610000D03*
D26*
X80600000Y12340000D03*
D26*
X80600000Y11070000D03*
D27*
X71550000Y38400000D03*
D27*
X73250000Y38400000D03*
D27*
X79550000Y38400000D03*
D27*
X81250000Y38400000D03*
D20*
X71450000Y42200000D03*
D20*
X73350000Y42200000D03*
D20*
X79450000Y42200000D03*
D20*
X81350000Y42200000D03*
D20*
X67050000Y8500000D03*
D20*
X68950000Y8500000D03*
D20*
X81050000Y8500000D03*
D20*
X82950000Y8500000D03*
D20*
X67050000Y5800000D03*
D20*
X68950000Y5800000D03*
D20*
X69050000Y3200000D03*
D20*
X70950000Y3200000D03*
D20*
X79050000Y3200000D03*
D20*
X80950000Y3200000D03*
D21*
X60300000Y8500000D03*
D21*
X63700000Y8500000D03*
D28*
X92900000Y26400000D03*
D29*
X86300000Y28700000D03*
D29*
X86300000Y26400000D03*
D29*
X86300000Y24100000D03*
D30*
X3900000Y3900000D03*
D30*
X100900000Y3900000D03*
D30*
X3900000Y48900000D03*
D30*
X100900000Y48900000D03*
D31*
X12000000Y18000000D03*
D31*
X12000000Y36000000D03*
D31*
X25000000Y36000000D03*
D31*
X25000000Y8000000D03*
D31*
X45000000Y8000000D03*
D31*
X45000000Y48000000D03*
D31*
X70000000Y48000000D03*
D31*
X95000000Y8000000D03*
D31*
X95000000Y44000000D03*
D31*
X88000000Y18000000D03*
D31*
X88000000Y34000000D03*
D31*
X55000000Y12000000D03*
D31*
X40000000Y48000000D03*
D31*
X20000000Y48000000D03*
D31*
X75000000Y28000000D03*
D31*
X96000000Y26400000D03*
D31*
X52500000Y18000000D03*
D31*
X78000000Y32000000D03*
D31*
X75000000Y28500000D03*
D31*
X90500000Y32500000D03*
D31*
X96000000Y20000000D03*
M02*
