%FSLAX36Y36*%
%MOMM*%
G04 GTP*
%LPD*%
%ADD10R,0.250X1.050*%
%ADD11R,1.650X2.150*%
%ADD12R,1.950X2.250*%
%ADD13R,1.550X2.350*%
%ADD14R,1.450X0.550*%
%ADD15R,1.950X3.150*%
%ADD16R,0.950X0.950*%
%ADD17R,0.950X1.250*%
%ADD18R,1.150X1.050*%
%ADD19R,3.750X3.150*%
%ADD20R,1.150X0.950*%
%ADD21R,0.750X0.650*%
%ADD22R,0.750X0.850*%
%ADD23R,1.550X0.650*%
%ADD24R,0.850X1.150*%
%ADD25R,6.450X6.450*%
%ADD26R,1.550X1.250*%
D10*
X71950000Y1550000D03*
D10*
X72700000Y1550000D03*
D10*
X73450000Y1550000D03*
D10*
X74200000Y1550000D03*
D10*
X74950000Y1550000D03*
D10*
X75700000Y1550000D03*
D10*
X76450000Y1550000D03*
D10*
X77200000Y1550000D03*
D10*
X77950000Y1550000D03*
D10*
X78700000Y1550000D03*
D11*
X15700000Y12000000D03*
D11*
X20300000Y12000000D03*
D12*
X15600000Y20500000D03*
D12*
X20400000Y20500000D03*
D13*
X16400000Y29000000D03*
D13*
X19600000Y29000000D03*
D14*
X31300000Y15905000D03*
D14*
X36700000Y15905000D03*
D14*
X31300000Y14635000D03*
D14*
X36700000Y14635000D03*
D14*
X31300000Y13365000D03*
D14*
X36700000Y13365000D03*
D14*
X31300000Y12095000D03*
D14*
X36700000Y12095000D03*
D15*
X31600000Y26500000D03*
D15*
X36400000Y26500000D03*
D16*
X40500000Y19050000D03*
D16*
X40500000Y20950000D03*
D16*
X43500000Y19050000D03*
D16*
X43500000Y20950000D03*
D17*
X39550000Y26500000D03*
D17*
X41450000Y26500000D03*
D18*
X25800000Y26500000D03*
D18*
X29200000Y26500000D03*
D19*
X35600000Y40000000D03*
D20*
X31200000Y37700000D03*
D20*
X31200000Y40000000D03*
D20*
X31200000Y42300000D03*
D17*
X41550000Y40000000D03*
D17*
X43450000Y40000000D03*
D14*
X49800000Y41905000D03*
D14*
X55200000Y41905000D03*
D14*
X49800000Y40635000D03*
D14*
X55200000Y40635000D03*
D14*
X49800000Y39365000D03*
D14*
X55200000Y39365000D03*
D14*
X49800000Y38095000D03*
D14*
X55200000Y38095000D03*
D17*
X59050000Y40000000D03*
D17*
X60950000Y40000000D03*
D17*
X59050000Y44500000D03*
D17*
X60950000Y44500000D03*
D14*
X49800000Y25905000D03*
D14*
X55200000Y25905000D03*
D14*
X49800000Y24635000D03*
D14*
X55200000Y24635000D03*
D14*
X49800000Y23365000D03*
D14*
X55200000Y23365000D03*
D14*
X49800000Y22095000D03*
D14*
X55200000Y22095000D03*
D21*
X62500000Y17550000D03*
D21*
X62500000Y19450000D03*
D22*
X64500000Y18500000D03*
D16*
X63500000Y23050000D03*
D16*
X63500000Y24950000D03*
D16*
X66500000Y23050000D03*
D16*
X66500000Y24950000D03*
D17*
X62550000Y13500000D03*
D17*
X64450000Y13500000D03*
D16*
X63500000Y29550000D03*
D16*
X63500000Y31450000D03*
D16*
X66500000Y29550000D03*
D16*
X66500000Y31450000D03*
D18*
X68800000Y30500000D03*
D18*
X72200000Y30500000D03*
D17*
X77050000Y36000000D03*
D17*
X78950000Y36000000D03*
D17*
X77050000Y40000000D03*
D17*
X78950000Y40000000D03*
D17*
X83050000Y36000000D03*
D17*
X84950000Y36000000D03*
D17*
X83050000Y40000000D03*
D17*
X84950000Y40000000D03*
D23*
X69400000Y22500000D03*
D23*
X69400000Y21230000D03*
D23*
X69400000Y19960000D03*
D23*
X69400000Y18690000D03*
D23*
X69400000Y17420000D03*
D23*
X69400000Y16150000D03*
D23*
X69400000Y14880000D03*
D23*
X69400000Y13610000D03*
D23*
X69400000Y12340000D03*
D23*
X69400000Y11070000D03*
D23*
X80600000Y22500000D03*
D23*
X80600000Y21230000D03*
D23*
X80600000Y19960000D03*
D23*
X80600000Y18690000D03*
D23*
X80600000Y17420000D03*
D23*
X80600000Y16150000D03*
D23*
X80600000Y14880000D03*
D23*
X80600000Y13610000D03*
D23*
X80600000Y12340000D03*
D23*
X80600000Y11070000D03*
D24*
X71550000Y38400000D03*
D24*
X73250000Y38400000D03*
D24*
X79550000Y38400000D03*
D24*
X81250000Y38400000D03*
D17*
X71450000Y42200000D03*
D17*
X73350000Y42200000D03*
D17*
X79450000Y42200000D03*
D17*
X81350000Y42200000D03*
D17*
X67050000Y8500000D03*
D17*
X68950000Y8500000D03*
D17*
X81050000Y8500000D03*
D17*
X82950000Y8500000D03*
D17*
X67050000Y5800000D03*
D17*
X68950000Y5800000D03*
D17*
X69050000Y3200000D03*
D17*
X70950000Y3200000D03*
D17*
X79050000Y3200000D03*
D17*
X80950000Y3200000D03*
D18*
X60300000Y8500000D03*
D18*
X63700000Y8500000D03*
D25*
X92900000Y26400000D03*
D26*
X86300000Y28700000D03*
D26*
X86300000Y26400000D03*
D26*
X86300000Y24100000D03*
M02*
