M48
;PTH
METRIC,TZ
T01C1.300
T02C0.900
T03C1.200
T04C1.000
T05C0.700
T06C0.300
%
T01
X3.800Y10.000
X3.800Y16.000
X3.800Y22.000
T02
X25.700Y3.200
X34.300Y3.200
T03
X55.400Y22.500
T04
X55.400Y27.200
X55.400Y17.800
T05
X18.500Y32.400
X32.000Y32.400
X35.500Y32.400
X47.500Y32.400
X22.500Y32.400
T06
X51.300Y21.100
X51.300Y22.500
X51.300Y23.900
X52.700Y21.100
X52.700Y22.500
X52.700Y23.900
X54.100Y21.100
X54.100Y22.500
X54.100Y23.900
X6.000Y6.000
X6.000Y13.000
X6.000Y20.000
X6.000Y27.000
X13.000Y6.000
X13.000Y27.000
X20.000Y6.000
X20.000Y13.000
X20.000Y20.000
X20.000Y27.000
X27.000Y6.000
X27.000Y13.000
X27.000Y20.000
X27.000Y27.000
X34.000Y6.000
X34.000Y13.000
X34.000Y20.000
X34.000Y27.000
X41.000Y6.000
X41.000Y13.000
X41.000Y20.000
X41.000Y27.000
X48.000Y6.000
X48.000Y13.000
X48.000Y20.000
X48.000Y27.000
X55.000Y6.000
X55.000Y13.000
X55.000Y20.000
X55.000Y27.000
X44.000Y18.500
X41.500Y22.000
X47.000Y22.500
X53.500Y22.500
M30
