M48
;PTH
METRIC,TZ
T01C1.300
T02C0.900
T03C1.200
T04C1.000
T06C0.300
%
T01
X4.800Y10.000
X4.800Y18.000
X4.800Y26.000
T02
X70.900Y3.400
X79.500Y3.400
T03
X99.000Y26.400
T04
X94.000Y30.900
X94.000Y21.900
T06
X12.000Y18.000
X12.000Y36.000
X25.000Y36.000
X25.000Y8.000
X45.000Y8.000
X45.000Y48.000
X70.000Y48.000
X95.000Y8.000
X95.000Y44.000
X88.000Y18.000
X88.000Y34.000
X55.000Y12.000
X40.000Y48.000
X20.000Y48.000
X75.000Y28.000
X96.000Y26.400
X52.500Y18.000
X78.000Y32.000
X75.000Y28.500
X90.500Y32.500
X96.000Y20.000
M30
